<svg xmlns="http://www.w3.org/2000/svg" xmlns:xlink="http://www.w3.org/1999/xlink" width="660" zoomAndPan="magnify" viewBox="0 0 495 91.5" height="122" preserveAspectRatio="xMidYMid meet" version="1.0"><defs><clipPath id="3184b21283"><path d="M 1.34375 0 L 27 0 L 27 91.003906 L 1.34375 91.003906 Z M 1.34375 0 " clip-rule="nonzero"/></clipPath><clipPath id="c73488c7a8"><path d="M 468 0 L 493.652344 0 L 493.652344 91.003906 L 468 91.003906 Z M 468 0 " clip-rule="nonzero"/></clipPath></defs><path fill="#ffffff" d="M 44.648438 34.910156 C 44.757812 30.203125 46.0625 27.480469 50.589844 27.480469 C 54.222656 27.480469 55.714844 29.613281 55.714844 32.902344 C 55.714844 37.046875 54.8125 37.835938 49.894531 39.140625 C 45.363281 40.347656 39.328125 41.351562 35.292969 43.578125 C 31.277344 45.789062 28.652344 51.109375 28.652344 57.480469 C 28.652344 69.226562 33.988281 74.070312 43.144531 74.070312 C 48.589844 74.070312 53.710938 71.253906 55.929688 66.417969 L 56.148438 66.417969 C 56.210938 68.535156 56.429688 70.753906 57.03125 72.65625 L 72.71875 72.65625 C 70.824219 70.25 70.824219 64.996094 70.824219 60.886719 L 70.824219 32.902344 C 70.824219 21.441406 64.882812 16.820312 51.492188 16.820312 C 44.757812 16.820312 40.121094 17.71875 36.316406 20.320312 C 32.484375 22.941406 30.28125 27.480469 30.171875 34.910156 Z M 44.355469 55.859375 C 44.355469 52.824219 45.160156 51.109375 46.867188 49.832031 C 48.375 48.621094 50.589844 48.511719 55.714844 45.789062 C 55.714844 48 55.636719 50.839844 55.636719 55.355469 C 55.636719 60.769531 52.5 62.800781 49.089844 62.800781 C 46.0625 62.800781 44.355469 60.1875 44.355469 55.859375 " fill-opacity="1" fill-rule="nonzero"/><path fill="#ffffff" d="M 105.226562 72.65625 L 120.929688 72.65625 L 120.929688 0.804688 L 104.621094 0.804688 L 104.621094 24.160156 L 104.417969 24.160156 C 101.71875 18.308594 96.769531 16.820312 92.253906 16.820312 C 78.863281 16.820312 76.472656 28.984375 76.472656 45.898438 C 76.472656 66.214844 82.292969 74.070312 93.261719 74.070312 C 100.492188 74.070312 103.828125 69.746094 105.023438 66.003906 L 105.226562 66.003906 Z M 104.929688 45.789062 C 104.929688 56.347656 103.90625 62.1875 99.097656 62.1875 C 92.953125 62.1875 92.734375 53.851562 92.734375 45.089844 C 92.734375 35.214844 93.046875 28.679688 98.988281 28.679688 C 104.527344 28.679688 104.929688 36.121094 104.929688 45.789062 " fill-opacity="1" fill-rule="nonzero"/><path fill="#ffffff" d="M 171.324219 72.65625 L 155.640625 72.65625 L 155.640625 66.214844 L 155.4375 66.214844 C 153.125 71.050781 148.394531 74.070312 142.371094 74.070312 C 133.09375 74.070312 128.160156 69.445312 128.160156 58.960938 L 128.160156 18.222656 L 144.464844 18.222656 L 144.464844 55.355469 C 144.464844 59.273438 146.1875 61.570312 149.199219 61.570312 C 152.304688 61.570312 155.035156 59.171875 155.035156 53.851562 L 155.035156 18.222656 L 171.324219 18.222656 Z M 171.324219 72.65625 " fill-opacity="1" fill-rule="nonzero"/><path fill="#ffffff" d="M 178.976562 0.804688 L 195.285156 0.804688 L 195.285156 72.65625 L 178.976562 72.65625 Z M 178.976562 0.804688 " fill-opacity="1" fill-rule="nonzero"/><path fill="#ffffff" d="M 206.859375 29.488281 L 200.109375 29.488281 L 200.109375 18.222656 L 206.859375 18.222656 L 206.859375 2.226562 L 223.167969 2.226562 L 223.167969 18.222656 L 230.707031 18.222656 L 230.707031 29.488281 L 223.167969 29.488281 L 223.167969 56.96875 C 223.167969 60.769531 224.5625 61.980469 228.394531 61.980469 C 229.089844 61.980469 230.007812 61.886719 230.707031 61.792969 L 230.707031 72.65625 C 227.589844 73.058594 224.453125 73.257812 221.347656 73.257812 C 210.085938 73.257812 206.859375 71.253906 206.859375 58.566406 Z M 206.859375 29.488281 " fill-opacity="1" fill-rule="nonzero"/><path fill="#ffffff" d="M 264.578125 55.355469 C 264.703125 57.773438 264.890625 59.886719 265.695312 61.496094 C 266.613281 63.011719 268.101562 64.011719 270.742188 64.011719 C 274.554688 64.011719 276.570312 61.570312 276.570312 58.472656 C 276.570312 55.953125 275.363281 53.546875 270.335938 51.832031 C 256.945312 47.316406 250.507812 44.695312 250.507812 33.21875 C 250.507812 22.351562 258.15625 16.820312 271.25 16.820312 C 286.53125 16.820312 290.972656 24.25 290.972656 32.105469 L 290.972656 33.933594 L 276.46875 33.933594 L 276.46875 32.902344 C 276.46875 28.195312 274.554688 26.894531 271.128906 26.894531 C 266.796875 26.894531 265.589844 28.984375 265.589844 31.902344 C 265.589844 41.5625 291.65625 35.144531 291.65625 56.269531 C 291.65625 67.222656 284.300781 74.070312 270.847656 74.070312 C 256.246094 74.070312 250.105469 68.636719 250.105469 57.773438 L 250.105469 55.355469 Z M 264.578125 55.355469 " fill-opacity="1" fill-rule="nonzero"/><path fill="#ffffff" d="M 293.5625 18.222656 L 309.855469 18.222656 L 315.117188 58.367188 L 315.300781 58.367188 L 321.433594 18.222656 L 338.949219 18.222656 L 344.691406 58.367188 L 344.875 58.367188 L 350.636719 18.222656 L 366.320312 18.222656 L 354.558594 72.65625 L 336.140625 72.65625 L 330.214844 32.5 L 330.011719 32.5 L 323.652344 72.65625 L 304.953125 72.65625 Z M 293.5625 18.222656 " fill-opacity="1" fill-rule="nonzero"/><path fill="#ffffff" d="M 371.144531 0 L 387.46875 0 L 387.46875 12.484375 L 371.144531 12.484375 Z M 371.144531 18.222656 L 387.46875 18.222656 L 387.46875 72.65625 L 371.144531 72.65625 Z M 371.144531 18.222656 " fill-opacity="1" fill-rule="nonzero"/><path fill="#ffffff" d="M 394.902344 18.222656 L 410.585938 18.222656 L 410.585938 24.65625 L 410.804688 24.65625 C 413.101562 19.8125 417.851562 16.820312 423.871094 16.820312 C 428.601562 16.820312 434.855469 17.71875 437.257812 25.160156 C 441.109375 18.835938 444.707031 16.820312 450.761719 16.820312 C 460.007812 16.820312 464.925781 21.441406 464.925781 31.902344 L 464.925781 72.65625 L 448.621094 72.65625 L 448.621094 35.523438 C 448.621094 31.605469 446.929688 29.289062 443.902344 29.289062 C 440.785156 29.289062 438.050781 31.714844 438.050781 37.046875 L 438.050781 72.65625 L 421.757812 72.65625 L 421.757812 35.523438 C 421.757812 31.605469 420.054688 29.289062 417.027344 29.289062 C 413.921875 29.289062 411.195312 31.714844 411.195312 37.046875 L 411.195312 72.65625 L 394.902344 72.65625 Z M 394.902344 18.222656 " fill-opacity="1" fill-rule="nonzero"/><g clip-path="url(#3184b21283)"><path fill="#ffffff" d="M 1.34375 0.667969 L 26.804688 0.667969 L 26.804688 11.9375 L 16.425781 11.9375 L 16.425781 79.746094 L 26.804688 79.746094 L 26.804688 91.003906 L 1.34375 91.003906 Z M 1.34375 0.667969 " fill-opacity="1" fill-rule="nonzero"/></g><g clip-path="url(#c73488c7a8)"><path fill="#ffffff" d="M 468.636719 79.746094 L 479 79.746094 L 479 11.9375 L 468.636719 11.9375 L 468.636719 0.667969 L 494.066406 0.667969 L 494.066406 91.003906 L 468.636719 91.003906 Z M 468.636719 79.746094 " fill-opacity="1" fill-rule="nonzero"/></g></svg>