<svg xmlns="http://www.w3.org/2000/svg" xmlns:xlink="http://www.w3.org/1999/xlink" width="1024" zoomAndPan="magnify" viewBox="0 0 768 296.250004" height="395" preserveAspectRatio="xMidYMid meet" version="1.0"><path fill="#ffffff" d="M 324.265625 135.453125 C 326.261719 135.890625 327.296875 133.429688 326.042969 132.128906 C 318.824219 125.101562 318.480469 116.53125 318.46875 110.222656 C 318.433594 102.710938 318.824219 95.296875 326.042969 88.285156 C 327.296875 86.96875 326.261719 84.519531 324.265625 84.960938 C 320.964844 85.265625 305.976562 94.199219 305.976562 109.492188 C 305.976562 125.285156 320.867188 135.160156 324.265625 135.453125 Z M 296.101562 78.601562 C 327.832031 58.320312 368.621094 60.9375 405.976562 67.5 C 411.25 68.4375 412.941406 61.570312 412.941406 61.570312 L 421.941406 62.25 L 428.464844 101.628906 C 428.464844 101.628906 427.929688 101.90625 419.457031 104.585938 C 417.761719 105.230469 416.984375 104.5625 416.835938 103.78125 C 410.847656 88.988281 391.804688 79.371094 371.082031 78.894531 C 361.902344 79.96875 350.492188 78.847656 346.242188 88.574219 C 344.136719 93.179688 344.136719 125.503906 345.488281 131.652344 C 346.230469 135.597656 348.058594 140.007812 352.332031 141.464844 C 375.585938 146.996094 401.007812 141.1875 421.222656 129.460938 C 422.742188 128.878906 423.789062 129.546875 424.253906 130.996094 L 428.769531 147.664062 C 388.480469 161.433594 331.59375 167.414062 294.726562 142.355469 C 283.585938 134.476562 276.109375 125.347656 276.109375 110.929688 C 276.109375 96.941406 285.058594 86.3125 296.101562 78.601562 " fill-opacity="1" fill-rule="nonzero"/><path fill="#ffffff" d="M 617.652344 86.859375 L 624.105469 84.265625 C 625.164062 83.863281 625.992188 84.4375 625.992188 85.605469 L 625.992188 130.496094 C 625.992188 131.652344 625.164062 132.90625 624.105469 133.332031 L 617.652344 135.902344 C 616.605469 136.328125 615.765625 135.730469 615.765625 134.574219 L 615.765625 89.683594 C 615.765625 88.539062 616.605469 87.273438 617.652344 86.859375 Z M 516.714844 85.410156 C 516.351562 85.054688 516.132812 84.582031 516.132812 84.007812 C 516.132812 82.972656 516.972656 82.148438 517.921875 82.148438 L 525.578125 82.148438 L 525.675781 82.085938 C 526.273438 82.0625 526.894531 82.292969 527.371094 82.792969 L 550.441406 107.253906 C 551.34375 108.203125 551.367188 109.785156 550.492188 110.773438 L 547.277344 114.460938 C 546.386719 115.433594 544.964844 115.472656 544.0625 114.511719 L 516.519531 85.152344 Z M 565.550781 93.179688 L 541.128906 66.769531 L 541.261719 66.769531 L 465.152344 66.769531 L 465.152344 76.09375 C 464.957031 77.3125 465.429688 78.457031 468.535156 79.296875 C 471.277344 80.039062 474.757812 81.464844 477.460938 82.523438 C 479.847656 83.484375 480.46875 84.863281 480.394531 86.75 L 480.394531 137.582031 C 480.46875 139.457031 479.847656 140.832031 477.460938 141.785156 C 474.757812 142.867188 471.277344 144.265625 468.535156 145.023438 C 465.429688 145.863281 464.957031 147.007812 465.152344 148.226562 L 465.152344 157.527344 L 512.601562 157.527344 L 512.601562 148.226562 C 512.808594 147.007812 512.320312 145.863281 509.203125 145.023438 C 506.488281 144.265625 502.992188 142.867188 500.300781 141.785156 C 497.902344 140.832031 497.28125 139.457031 497.355469 137.582031 L 497.320312 97.292969 C 497.320312 96.390625 497.976562 95.636719 498.828125 95.636719 C 499.207031 95.636719 499.488281 95.757812 499.765625 96.015625 L 543.597656 146.996094 L 587.820312 94.832031 C 588.113281 94.40625 588.636719 94.1875 589.136719 94.1875 C 589.964844 94.1875 590.523438 94.929688 590.523438 95.84375 L 590.632812 137.582031 C 590.695312 139.457031 590.074219 140.832031 587.699219 141.785156 C 584.996094 142.867188 581.515625 144.265625 578.789062 145.023438 C 575.671875 145.863281 575.195312 147.007812 575.390625 148.226562 L 575.390625 157.527344 L 666.101562 157.527344 L 666.113281 148.226562 C 666.320312 147.007812 665.84375 145.863281 662.703125 145.023438 C 659.988281 144.265625 656.503906 142.867188 653.800781 141.785156 C 651.402344 140.832031 650.820312 139.457031 650.867188 137.582031 L 650.867188 86.75 C 650.820312 84.863281 651.402344 83.484375 653.800781 82.523438 C 656.503906 81.464844 659.988281 80.039062 662.703125 79.296875 C 665.84375 78.457031 666.320312 77.3125 666.113281 76.09375 L 666.101562 66.769531 L 589.878906 66.769531 L 567.34375 93.128906 C 567.125 93.386719 566.804688 93.542969 566.476562 93.542969 C 566.125 93.542969 565.746094 93.457031 565.550781 93.179688 " fill-opacity="1" fill-rule="nonzero"/><path fill="#ffffff" d="M 176.9375 132.773438 C 176.9375 133.929688 176.097656 135.195312 175.050781 135.597656 L 168.574219 138.191406 C 167.527344 138.617188 166.675781 137.996094 166.675781 136.890625 L 166.675781 91.960938 C 166.675781 90.828125 167.527344 89.550781 168.574219 89.136719 L 175.050781 86.566406 C 176.097656 86.128906 176.9375 86.722656 176.9375 87.855469 Z M 244.476562 66.769531 L 98.382812 66.769531 C 98.382812 66.769531 92.867188 90.304688 89.75 101.25 L 98.199219 104.734375 C 100.621094 105.742188 100.890625 104.136719 102.242188 102.652344 C 109.386719 88.003906 125.019531 77.253906 140.375 82.378906 L 140.351562 137.582031 C 140.4375 139.457031 139.828125 140.832031 137.417969 141.785156 C 134.726562 142.867188 131.230469 144.265625 128.503906 145.023438 C 125.386719 145.863281 124.910156 147.007812 125.117188 148.226562 L 125.117188 157.527344 L 217.753906 157.527344 L 217.777344 148.226562 C 217.984375 147.007812 217.496094 145.863281 214.378906 145.023438 C 211.640625 144.265625 208.15625 142.867188 205.464844 141.785156 C 203.054688 140.832031 202.445312 139.457031 202.53125 137.582031 L 202.507812 82.378906 C 217.847656 77.253906 233.496094 88.003906 240.628906 102.652344 C 241.980469 104.136719 242.25 105.742188 244.671875 104.734375 L 253.136719 101.25 C 250.019531 90.304688 244.476562 66.769531 244.476562 66.769531 " fill-opacity="1" fill-rule="nonzero"/><path fill="#ffffff" d="M 720.183594 201.726562 L 48.058594 201.726562 L 48.058594 14.351562 L 720.183594 14.351562 Z M 737.707031 -1.234375 L 30.34375 -1.234375 C 27.90625 -1.234375 25.933594 0.738281 25.933594 3.175781 L 25.933594 212.902344 C 25.933594 215.324219 27.90625 217.296875 30.34375 217.296875 L 737.707031 217.296875 C 740.152344 217.296875 742.136719 215.324219 742.136719 212.902344 L 742.136719 3.175781 C 742.136719 0.738281 740.152344 -1.234375 737.707031 -1.234375 " fill-opacity="1" fill-rule="nonzero"/><path fill="#ffffff" d="M 40.507812 255.957031 L 40.507812 285.347656 L 35.347656 285.347656 L 35.347656 255.957031 L 25.984375 255.957031 L 25.984375 251.328125 L 49.871094 251.328125 L 49.871094 255.957031 L 40.507812 255.957031 " fill-opacity="1" fill-rule="nonzero"/><path fill="#ffffff" d="M 73.785156 285.628906 C 66.859375 285.628906 61.597656 280.914062 61.597656 273.878906 L 61.597656 251.328125 L 66.773438 251.328125 L 66.773438 273.636719 C 66.773438 278.175781 69.535156 281 73.785156 281 C 78.035156 281 80.859375 278.175781 80.859375 273.636719 L 80.859375 251.328125 L 86.011719 251.328125 L 86.011719 273.878906 C 86.011719 280.914062 80.714844 285.628906 73.785156 285.628906 " fill-opacity="1" fill-rule="nonzero"/><path fill="#ffffff" d="M 127.515625 285.347656 L 119.6875 270.296875 C 123.5 269.238281 126.46875 266.148438 126.46875 261.265625 C 126.46875 255.480469 122.355469 251.328125 115.914062 251.328125 L 102.726562 251.328125 L 102.726562 285.347656 L 107.890625 285.347656 L 107.890625 271.015625 L 114.332031 271.015625 L 121.503906 285.347656 Z M 121.308594 261.3125 C 121.308594 264.660156 118.96875 266.621094 115.535156 266.621094 L 107.890625 266.621094 L 107.890625 255.957031 L 115.535156 255.957031 C 118.96875 255.957031 121.308594 257.964844 121.308594 261.3125 " fill-opacity="1" fill-rule="nonzero"/><path fill="#ffffff" d="M 163.242188 285.347656 L 147.535156 261.410156 L 147.535156 285.347656 L 142.371094 285.347656 L 142.371094 251.328125 L 147.097656 251.328125 L 162.816406 275.21875 L 162.816406 251.328125 L 167.964844 251.328125 L 167.964844 285.347656 L 163.242188 285.347656 " fill-opacity="1" fill-rule="nonzero"/><path fill="#ffffff" d="M 185.207031 285.347656 L 185.207031 251.328125 L 206.941406 251.328125 L 206.941406 255.957031 L 190.367188 255.957031 L 190.367188 265.890625 L 204.503906 265.890625 L 204.503906 270.480469 L 190.367188 270.480469 L 190.367188 280.710938 L 206.941406 280.710938 L 206.941406 285.347656 L 185.207031 285.347656 " fill-opacity="1" fill-rule="nonzero"/><path fill="#ffffff" d="M 247.15625 285.347656 L 239.328125 270.296875 C 243.136719 269.238281 246.097656 266.148438 246.097656 261.265625 C 246.097656 255.480469 241.992188 251.328125 235.539062 251.328125 L 222.367188 251.328125 L 222.367188 285.347656 L 227.527344 285.347656 L 227.527344 271.015625 L 233.96875 271.015625 L 241.128906 285.347656 Z M 240.945312 261.3125 C 240.945312 264.660156 238.609375 266.621094 235.164062 266.621094 L 227.527344 266.621094 L 227.527344 255.957031 L 235.164062 255.957031 C 238.609375 255.957031 240.945312 257.964844 240.945312 261.3125 " fill-opacity="1" fill-rule="nonzero"/><path fill="#ffffff" d="M 291.183594 285.628906 C 287.652344 285.628906 284.597656 284.347656 282.246094 282.011719 C 278.910156 278.652344 278.960938 274.875 278.960938 268.339844 C 278.960938 261.789062 278.910156 258.011719 282.246094 254.664062 C 284.597656 252.328125 287.652344 251.046875 291.183594 251.046875 C 297.441406 251.046875 302.128906 254.714844 303.324219 261.507812 L 298.0625 261.507812 C 297.246094 258.0625 294.957031 255.675781 291.183594 255.675781 C 289.175781 255.675781 287.359375 256.441406 286.167969 257.734375 C 284.5 259.546875 284.109375 261.507812 284.109375 268.339844 C 284.109375 275.179688 284.5 277.140625 286.167969 278.957031 C 287.359375 280.234375 289.175781 281 291.183594 281 C 294.957031 281 297.308594 278.601562 298.113281 275.179688 L 303.324219 275.179688 C 302.167969 281.949219 297.34375 285.628906 291.183594 285.628906 " fill-opacity="1" fill-rule="nonzero"/><path fill="#ffffff" d="M 316.582031 285.347656 L 316.582031 251.328125 L 321.734375 251.328125 L 321.734375 280.710938 L 338.121094 280.710938 L 338.121094 285.347656 L 316.582031 285.347656 " fill-opacity="1" fill-rule="nonzero"/><path fill="#ffffff" d="M 375.414062 285.347656 L 362.949219 251.328125 L 358.785156 251.328125 L 346.316406 285.347656 L 351.820312 285.347656 L 354.15625 278.515625 L 367.574219 278.515625 L 369.914062 285.347656 Z M 366.148438 274.121094 L 355.679688 274.121094 L 360.988281 259.023438 L 366.148438 274.121094 " fill-opacity="1" fill-rule="nonzero"/><path fill="#ffffff" d="M 397.613281 285.628906 C 392.5 285.628906 388.820312 284.445312 385.582031 281.148438 L 389.027344 277.761719 C 391.5 280.234375 394.214844 281 397.722656 281 C 402.140625 281 404.746094 279.089844 404.746094 275.789062 C 404.746094 274.304688 404.308594 273.074219 403.394531 272.257812 C 402.53125 271.441406 401.679688 271.101562 399.671875 270.820312 L 395.652344 270.25 C 392.898438 269.859375 390.695312 268.910156 389.210938 267.523438 C 387.542969 265.953125 386.726562 263.796875 386.726562 261.019531 C 386.726562 255.101562 391.023438 251.046875 398.097656 251.046875 C 402.578125 251.046875 405.734375 252.179688 408.644531 254.90625 L 405.355469 258.160156 C 403.25 256.148438 400.8125 255.542969 397.953125 255.542969 C 393.933594 255.542969 391.742188 257.816406 391.742188 260.824219 C 391.742188 262.078125 392.121094 263.175781 393.035156 263.992188 C 393.898438 264.757812 395.285156 265.332031 396.855469 265.574219 L 400.71875 266.148438 C 403.871094 266.621094 405.636719 267.375 407.085938 268.667969 C 408.9375 270.296875 409.847656 272.746094 409.847656 275.644531 C 409.847656 281.914062 404.746094 285.628906 397.613281 285.628906 " fill-opacity="1" fill-rule="nonzero"/><path fill="#ffffff" d="M 433.664062 285.628906 C 428.574219 285.628906 424.886719 284.445312 421.636719 281.148438 L 425.070312 277.761719 C 427.566406 280.234375 430.28125 281 433.773438 281 C 438.21875 281 440.789062 279.089844 440.789062 275.789062 C 440.789062 274.304688 440.363281 273.074219 439.460938 272.257812 C 438.597656 271.441406 437.742188 271.101562 435.734375 270.820312 L 431.703125 270.25 C 428.941406 269.859375 426.75 268.910156 425.261719 267.523438 C 423.59375 265.953125 422.792969 263.796875 422.792969 261.019531 C 422.792969 255.101562 427.089844 251.046875 434.164062 251.046875 C 438.644531 251.046875 441.785156 252.179688 444.707031 254.90625 L 441.410156 258.160156 C 439.3125 256.148438 436.878906 255.542969 434.003906 255.542969 C 430 255.542969 427.808594 257.816406 427.808594 260.824219 C 427.808594 262.078125 428.1875 263.175781 429.085938 263.992188 C 429.9375 264.757812 431.339844 265.332031 432.921875 265.574219 L 436.78125 266.148438 C 439.933594 266.621094 441.714844 267.375 443.136719 268.667969 C 444.988281 270.296875 445.890625 272.746094 445.890625 275.644531 C 445.890625 281.914062 440.789062 285.628906 433.664062 285.628906 " fill-opacity="1" fill-rule="nonzero"/><path fill="#ffffff" d="M 461.195312 285.347656 L 466.351562 285.347656 L 466.351562 251.324219 L 461.195312 251.324219 Z M 461.195312 285.347656 " fill-opacity="1" fill-rule="nonzero"/><path fill="#ffffff" d="M 494.554688 285.628906 C 491.050781 285.628906 487.96875 284.347656 485.628906 282.011719 C 482.292969 278.652344 482.34375 274.875 482.34375 268.339844 C 482.34375 261.789062 482.292969 258.011719 485.628906 254.664062 C 487.96875 252.328125 491.050781 251.046875 494.554688 251.046875 C 500.824219 251.046875 505.5 254.714844 506.695312 261.507812 L 501.445312 261.507812 C 500.644531 258.0625 498.34375 255.675781 494.554688 255.675781 C 492.558594 255.675781 490.757812 256.441406 489.550781 257.734375 C 487.882812 259.546875 487.492188 261.507812 487.492188 268.339844 C 487.492188 275.179688 487.882812 277.140625 489.550781 278.957031 C 490.757812 280.234375 492.558594 281 494.554688 281 C 498.34375 281 500.679688 278.601562 501.496094 275.179688 L 506.695312 275.179688 C 505.5625 281.949219 500.730469 285.628906 494.554688 285.628906 " fill-opacity="1" fill-rule="nonzero"/><path fill="#ffffff" d="M 564.96875 285.347656 L 564.96875 262.605469 L 557.125 279.1875 L 553.304688 279.1875 L 545.28125 262.605469 L 545.28125 285.347656 L 540.128906 285.347656 L 540.128906 251.328125 L 545.28125 251.328125 L 555.214844 272.492188 L 564.96875 251.328125 L 570.117188 251.328125 L 570.117188 285.347656 L 564.96875 285.347656 " fill-opacity="1" fill-rule="nonzero"/><path fill="#ffffff" d="M 610.53125 268.339844 C 610.53125 261.789062 610.601562 258.011719 607.289062 254.664062 C 604.929688 252.328125 601.945312 251.046875 598.292969 251.046875 C 594.664062 251.046875 591.707031 252.328125 589.367188 254.664062 C 586.019531 258.011719 586.070312 261.789062 586.070312 268.339844 C 586.070312 274.875 586.019531 278.652344 589.367188 282.011719 C 591.707031 284.347656 594.664062 285.628906 598.292969 285.628906 C 601.945312 285.628906 604.929688 284.347656 607.289062 282.011719 C 610.601562 278.652344 610.53125 274.875 610.53125 268.339844 Z M 605.367188 268.339844 C 605.367188 275.179688 605.039062 277.082031 603.359375 278.894531 C 602.152344 280.183594 600.3125 281 598.292969 281 C 596.296875 281 594.421875 280.183594 593.238281 278.894531 C 591.558594 277.082031 591.230469 275.179688 591.230469 268.339844 C 591.230469 261.507812 591.558594 259.597656 593.238281 257.769531 C 594.421875 256.492188 596.296875 255.675781 598.292969 255.675781 C 600.3125 255.675781 602.152344 256.492188 603.359375 257.769531 C 605.039062 259.597656 605.367188 261.507812 605.367188 268.339844 " fill-opacity="1" fill-rule="nonzero"/><path fill="#ffffff" d="M 637.035156 285.347656 L 633.03125 285.347656 L 621.851562 251.328125 L 627.199219 251.328125 L 635.039062 276.082031 L 642.855469 251.328125 L 648.300781 251.328125 L 637.035156 285.347656 " fill-opacity="1" fill-rule="nonzero"/><path fill="#ffffff" d="M 661.339844 285.347656 L 666.511719 285.347656 L 666.511719 251.324219 L 661.339844 251.324219 Z M 661.339844 285.347656 " fill-opacity="1" fill-rule="nonzero"/><path fill="#ffffff" d="M 683.742188 285.347656 L 683.742188 251.328125 L 705.476562 251.328125 L 705.476562 255.957031 L 688.90625 255.957031 L 688.90625 265.890625 L 703.027344 265.890625 L 703.027344 270.480469 L 688.90625 270.480469 L 688.90625 280.710938 L 705.476562 280.710938 L 705.476562 285.347656 L 683.742188 285.347656 " fill-opacity="1" fill-rule="nonzero"/><path fill="#ffffff" d="M 729.914062 285.628906 C 724.824219 285.628906 721.148438 284.445312 717.882812 281.148438 L 721.328125 277.761719 C 723.824219 280.234375 726.539062 281 730.023438 281 C 734.453125 281 737.035156 279.089844 737.035156 275.789062 C 737.035156 274.304688 736.609375 273.074219 735.707031 272.257812 C 734.832031 271.441406 733.992188 271.101562 731.984375 270.820312 L 727.964844 270.25 C 725.1875 269.859375 722.996094 268.910156 721.523438 267.523438 C 719.84375 265.953125 719.027344 263.796875 719.027344 261.019531 C 719.027344 255.101562 723.324219 251.046875 730.414062 251.046875 C 734.894531 251.046875 738.035156 252.179688 740.96875 254.90625 L 737.65625 258.160156 C 735.5625 256.148438 733.113281 255.542969 730.253906 255.542969 C 726.25 255.542969 724.054688 257.816406 724.054688 260.824219 C 724.054688 262.078125 724.433594 263.175781 725.347656 263.992188 C 726.199219 264.757812 727.585938 265.332031 729.15625 265.574219 L 733.03125 266.148438 C 736.183594 266.621094 737.949219 267.375 739.386719 268.667969 C 741.238281 270.296875 742.148438 272.746094 742.148438 275.644531 C 742.148438 281.914062 737.035156 285.628906 729.914062 285.628906 " fill-opacity="1" fill-rule="nonzero"/></svg>