<?xml version="1.0" encoding="UTF-8" standalone="no"?>
<!-- Created with Inkscape (http://www.inkscape.org/) -->
<svg
   xmlns:dc="http://purl.org/dc/elements/1.1/"
   xmlns:cc="http://creativecommons.org/ns#"
   xmlns:rdf="http://www.w3.org/1999/02/22-rdf-syntax-ns#"
   xmlns:svg="http://www.w3.org/2000/svg"
   xmlns="http://www.w3.org/2000/svg"
   xmlns:sodipodi="http://sodipodi.sourceforge.net/DTD/sodipodi-0.dtd"
   xmlns:inkscape="http://www.inkscape.org/namespaces/inkscape"
   width="1024"
   height="395"
   id="svg2"
   sodipodi:version="0.32"
   inkscape:version="0.46"
   version="1.0"
   sodipodi:docname="TCM.svg"
   inkscape:output_extension="org.inkscape.output.svg.inkscape">
  <defs
     id="defs4">
    <inkscape:perspective
       sodipodi:type="inkscape:persp3d"
       inkscape:vp_x="0 : 526.18109 : 1"
       inkscape:vp_y="0 : 1000 : 0"
       inkscape:vp_z="744.09448 : 526.18109 : 1"
       inkscape:persp3d-origin="372.04724 : 350.78739 : 1"
       id="perspective10" />
    <clipPath
       id="clipPath3684"
       clipPathUnits="userSpaceOnUse">
      <path
         id="path3686"
         d="M 0,841.98 L 595.2,841.98 L 595.2,0 L 0,0 L 0,841.98 z" />
    </clipPath>
    <clipPath
       id="clipPath3678"
       clipPathUnits="userSpaceOnUse">
      <path
         id="path3680"
         d="M -0.138,841.945 L 595.138,841.945 L 595.138,0.055 L -0.138,0.055 L -0.138,841.945 z" />
    </clipPath>
    <clipPath
       id="clipPath3626"
       clipPathUnits="userSpaceOnUse">
      <path
         id="path3628"
         d="M 188.696,337.237 L 126.798,337.237 L 126.798,322.72 L 188.696,322.72 L 188.696,337.237 z" />
    </clipPath>
    <clipPath
       id="clipPath3548"
       clipPathUnits="userSpaceOnUse">
      <path
         id="path3550"
         d="M 188.495,97.761 L 129.321,97.761 L 129.321,77.166 L 188.495,77.166 L 188.495,97.761 z" />
    </clipPath>
    <radialGradient
       id="radialGradient3504"
       spreadMethod="pad"
       gradientTransform="matrix(11.9861,0,0,-11.9861,387.90369,397.34573)"
       gradientUnits="userSpaceOnUse"
       r="1"
       cy="0"
       cx="0"
       fy="0"
       fx="0">
      <stop
         id="stop3506"
         offset="0"
         style="stop-opacity:1;stop-color:#f3f4f4" />
      <stop
         id="stop3508"
         offset="0.162921"
         style="stop-opacity:1;stop-color:#58595b" />
      <stop
         id="stop3510"
         offset="0.365169"
         style="stop-opacity:1;stop-color:#f3f4f4" />
      <stop
         id="stop3512"
         offset="0.623595"
         style="stop-opacity:1;stop-color:#4e4e50" />
      <stop
         id="stop3514"
         offset="0.825843"
         style="stop-opacity:1;stop-color:#f3f4f4" />
      <stop
         id="stop3516"
         offset="1"
         style="stop-opacity:1;stop-color:#9d9fa2" />
    </radialGradient>
    <radialGradient
       id="radialGradient3478"
       spreadMethod="pad"
       gradientTransform="matrix(11.2915,0,0,-11.2915,388.50738,397.04013)"
       gradientUnits="userSpaceOnUse"
       r="1"
       cy="0"
       cx="0"
       fy="0"
       fx="0">
      <stop
         id="stop3480"
         offset="0"
         style="stop-opacity:1;stop-color:#f3f4f4" />
      <stop
         id="stop3482"
         offset="0.162921"
         style="stop-opacity:1;stop-color:#66676a" />
      <stop
         id="stop3484"
         offset="0.365169"
         style="stop-opacity:1;stop-color:#d4d5d6" />
      <stop
         id="stop3486"
         offset="0.623595"
         style="stop-opacity:1;stop-color:#231f20" />
      <stop
         id="stop3488"
         offset="0.825843"
         style="stop-opacity:1;stop-color:#f3f4f4" />
      <stop
         id="stop3490"
         offset="1"
         style="stop-opacity:1;stop-color:#898b8e" />
    </radialGradient>
    <clipPath
       id="clipPath3442"
       clipPathUnits="userSpaceOnUse">
      <path
         id="path3444"
         d="M 0,841.98 L 595.2,841.98 L 595.2,0 L 0,0 L 0,841.98 z" />
    </clipPath>
    <clipPath
       id="clipPath3436"
       clipPathUnits="userSpaceOnUse">
      <path
         id="path3438"
         d="M -0.138,841.945 L 595.138,841.945 L 595.138,0.055 L -0.138,0.055 L -0.138,841.945 z" />
    </clipPath>
    <clipPath
       id="clipPath3430"
       clipPathUnits="userSpaceOnUse">
      <path
         id="path3432"
         clip-rule="evenodd"
         d="M 351.177,410.665 L 421.459,410.665 L 421.459,380.882 L 351.177,380.882 L 351.177,410.665 z" />
    </clipPath>
    <clipPath
       id="clipPath3424"
       clipPathUnits="userSpaceOnUse">
      <path
         id="path3426"
         d="M 407.417,410.907 L 365.223,410.907 L 365.223,381.043 L 407.417,381.043 L 407.417,410.907 z" />
    </clipPath>
    <clipPath
       id="clipPath3398"
       clipPathUnits="userSpaceOnUse">
      <path
         id="path3400"
         d="M 0,841.98 L 595.2,841.98 L 595.2,0 L 0,0 L 0,841.98 z" />
    </clipPath>
    <clipPath
       id="clipPath3392"
       clipPathUnits="userSpaceOnUse">
      <path
         id="path3394"
         d="M -0.138,841.945 L 595.138,841.945 L 595.138,0.055 L -0.138,0.055 L -0.138,841.945 z" />
    </clipPath>
    <clipPath
       id="clipPath3386"
       clipPathUnits="userSpaceOnUse">
      <path
         id="path3388"
         clip-rule="evenodd"
         d="M 350.414,336.118 L 420.696,336.118 L 420.696,306.334 L 350.414,306.334 L 350.414,336.118 z" />
    </clipPath>
    <clipPath
       id="clipPath3380"
       clipPathUnits="userSpaceOnUse">
      <path
         id="path3382"
         d="M 409.554,347.202 L 369.778,347.202 L 369.778,311.59 L 409.554,311.59 L 409.554,347.202 z" />
    </clipPath>
    <clipPath
       id="clipPath3240"
       clipPathUnits="userSpaceOnUse">
      <path
         id="path3242"
         d="M 0,841.98 L 595.2,841.98 L 595.2,0 L 0,0 L 0,841.98 z" />
    </clipPath>
    <clipPath
       id="clipPath3234"
       clipPathUnits="userSpaceOnUse">
      <path
         id="path3236"
         d="M -0.138,841.945 L 595.138,841.945 L 595.138,0.055 L -0.138,0.055 L -0.138,841.945 z" />
    </clipPath>
    <clipPath
       id="clipPath3228"
       clipPathUnits="userSpaceOnUse">
      <path
         id="path3230"
         clip-rule="evenodd"
         d="M 350.414,336.118 L 420.696,336.118 L 420.696,306.334 L 350.414,306.334 L 350.414,336.118 z" />
    </clipPath>
    <clipPath
       id="clipPath3222"
       clipPathUnits="userSpaceOnUse">
      <path
         id="path3224"
         d="M 409.554,347.202 L 369.778,347.202 L 369.778,311.59 L 409.554,311.59 L 409.554,347.202 z" />
    </clipPath>
    <clipPath
       id="clipPath3216"
       clipPathUnits="userSpaceOnUse">
      <path
         id="path3218"
         d="M 399.42,311.59 L 369.778,311.59 L 369.778,337.875 L 399.42,337.875 L 399.42,311.59 z" />
    </clipPath>
    <clipPath
       id="clipPath3204"
       clipPathUnits="userSpaceOnUse">
      <path
         id="path3206"
         d="M 0,841.98 L 595.2,841.98 L 595.2,0 L 0,0 L 0,841.98 z" />
    </clipPath>
    <clipPath
       id="clipPath3198"
       clipPathUnits="userSpaceOnUse">
      <path
         id="path3200"
         d="M -0.138,841.945 L 595.138,841.945 L 595.138,0.055 L -0.138,0.055 L -0.138,841.945 z" />
    </clipPath>
    <clipPath
       id="clipPath3192"
       clipPathUnits="userSpaceOnUse">
      <path
         id="path3194"
         clip-rule="evenodd"
         d="M 350.414,336.118 L 420.696,336.118 L 420.696,306.334 L 350.414,306.334 L 350.414,336.118 z" />
    </clipPath>
    <clipPath
       id="clipPath3186"
       clipPathUnits="userSpaceOnUse">
      <path
         id="path3188"
         d="M 409.554,347.202 L 369.778,347.202 L 369.778,311.59 L 409.554,311.59 L 409.554,347.202 z" />
    </clipPath>
    <clipPath
       id="clipPath3174"
       clipPathUnits="userSpaceOnUse">
      <path
         id="path3176"
         d="M 0,841.98 L 595.2,841.98 L 595.2,0 L 0,0 L 0,841.98 z" />
    </clipPath>
    <clipPath
       id="clipPath3168"
       clipPathUnits="userSpaceOnUse">
      <path
         id="path3170"
         d="M -0.138,841.945 L 595.138,841.945 L 595.138,0.055 L -0.138,0.055 L -0.138,841.945 z" />
    </clipPath>
    <clipPath
       id="clipPath3162"
       clipPathUnits="userSpaceOnUse">
      <path
         id="path3164"
         clip-rule="evenodd"
         d="M 351.177,276.865 L 421.459,276.865 L 421.459,247.082 L 351.177,247.082 L 351.177,276.865 z" />
    </clipPath>
    <clipPath
       id="clipPath3150"
       clipPathUnits="userSpaceOnUse">
      <path
         id="path3152"
         d="M 0,841.98 L 595.2,841.98 L 595.2,0 L 0,0 L 0,841.98 z" />
    </clipPath>
    <clipPath
       id="clipPath3144"
       clipPathUnits="userSpaceOnUse">
      <path
         id="path3146"
         d="M -0.138,841.945 L 595.138,841.945 L 595.138,0.055 L -0.138,0.055 L -0.138,841.945 z" />
    </clipPath>
    <clipPath
       id="clipPath3138"
       clipPathUnits="userSpaceOnUse">
      <path
         id="path3140"
         clip-rule="evenodd"
         d="M 351.177,230.665 L 421.459,230.665 L 421.459,188.757 L 351.177,188.757 L 351.177,230.665 z" />
    </clipPath>
    <clipPath
       id="clipPath3124"
       clipPathUnits="userSpaceOnUse">
      <path
         id="path3126"
         d="M 416.087,169.046 L 361.9,169.046 L 361.9,149.704 L 416.087,149.704 L 416.087,169.046 z" />
    </clipPath>
    <clipPath
       id="clipPath3070"
       clipPathUnits="userSpaceOnUse">
      <path
         id="path3072"
         d="M 0,841.98 L 595.2,841.98 L 595.2,0 L 0,0 L 0,841.98 z" />
    </clipPath>
    <clipPath
       id="clipPath3064"
       clipPathUnits="userSpaceOnUse">
      <path
         id="path3066"
         d="M -0.138,841.945 L 595.138,841.945 L 595.138,0.055 L -0.138,0.055 L -0.138,841.945 z" />
    </clipPath>
    <clipPath
       id="clipPath3058"
       clipPathUnits="userSpaceOnUse">
      <path
         id="path3060"
         clip-rule="evenodd"
         d="M 351.177,98.665 L 421.459,98.665 L 421.459,68.882 L 351.177,68.882 L 351.177,98.665 z" />
    </clipPath>
    <clipPath
       id="clipPath3052"
       clipPathUnits="userSpaceOnUse">
      <path
         id="path3054"
         d="M 443.654,131.194 L 335.654,131.194 L 335.654,41.194 L 443.654,41.194 L 443.654,131.194 z" />
    </clipPath>
    <clipPath
       id="clipPath2914"
       clipPathUnits="userSpaceOnUse">
      <path
         id="path2916"
         d="M 0,841.98 L 595.2,841.98 L 595.2,0 L 0,0 L 0,841.98 z" />
    </clipPath>
    <clipPath
       id="clipPath2908"
       clipPathUnits="userSpaceOnUse">
      <path
         id="path2910"
         d="M -0.138,841.945 L 595.138,841.945 L 595.138,0.055 L -0.138,0.055 L -0.138,841.945 z" />
    </clipPath>
    <clipPath
       id="clipPath2590"
       clipPathUnits="userSpaceOnUse">
      <path
         id="path2592"
         d="M 0,841.98 L 595.2,841.98 L 595.2,0 L 0,0 L 0,841.98 z" />
    </clipPath>
    <clipPath
       id="clipPath2584"
       clipPathUnits="userSpaceOnUse">
      <path
         id="path2586"
         d="M -0.138,841.945 L 595.138,841.945 L 595.138,0.055 L -0.138,0.055 L -0.138,841.945 z" />
    </clipPath>
    <clipPath
       id="clipPath2578"
       clipPathUnits="userSpaceOnUse">
      <path
         id="path2580"
         clip-rule="evenodd"
         d="M 138.133,534.953 L 605.009,534.953 L 605.009,517.945 L 138.133,517.945 L 138.133,534.953 z" />
    </clipPath>
    <clipPath
       id="clipPath2556"
       clipPathUnits="userSpaceOnUse">
      <path
         id="path2558"
         d="M 0,841.98 L 595.2,841.98 L 595.2,0 L 0,0 L 0,841.98 z" />
    </clipPath>
    <clipPath
       id="clipPath2550"
       clipPathUnits="userSpaceOnUse">
      <path
         id="path2552"
         d="M -0.138,841.945 L 595.138,841.945 L 595.138,0.055 L -0.138,0.055 L -0.138,841.945 z" />
    </clipPath>
    <clipPath
       id="clipPath2534"
       clipPathUnits="userSpaceOnUse">
      <path
         id="path2536"
         d="M 0,841.98 L 595.2,841.98 L 595.2,0 L 0,0 L 0,841.98 z" />
    </clipPath>
    <clipPath
       id="clipPath2528"
       clipPathUnits="userSpaceOnUse">
      <path
         id="path2530"
         d="M -0.138,841.945 L 595.138,841.945 L 595.138,0.055 L -0.138,0.055 L -0.138,841.945 z" />
    </clipPath>
    <clipPath
       id="clipPath2522"
       clipPathUnits="userSpaceOnUse">
      <path
         id="path2524"
         clip-rule="evenodd"
         d="M -11.476,534.764 L 153.682,534.764 L 153.682,517.756 L -11.476,517.756 L -11.476,534.764 z" />
    </clipPath>
    <clipPath
       id="clipPath2516"
       clipPathUnits="userSpaceOnUse">
      <path
         id="path2518"
         d="M 463.126,1233.087 L 31.328,1233.087 L 31.328,434.666 L 463.126,434.666 L 463.126,1233.087 z" />
    </clipPath>
    <linearGradient
       id="linearGradient2504"
       spreadMethod="pad"
       gradientTransform="matrix(-279.97757,1.2e-5,1.2e-5,279.94858,422.13827,526.2807)"
       gradientUnits="userSpaceOnUse"
       y2="0"
       x2="1"
       y1="0"
       x1="0">
      <stop
         id="stop2506"
         offset="0"
         style="stop-opacity:1;stop-color:#002f61" />
      <stop
         id="stop2508"
         offset="1"
         style="stop-opacity:1;stop-color:#ffffff" />
    </linearGradient>
    <clipPath
       id="clipPath2492"
       clipPathUnits="userSpaceOnUse">
      <path
         id="path2494"
         d="M -0.138,841.945 L 595.138,841.945 L 595.138,0.055 L -0.138,0.055 L -0.138,841.945 z" />
    </clipPath>
    <clipPath
       id="clipPath2486"
       clipPathUnits="userSpaceOnUse">
      <path
         id="path2488"
         clip-rule="evenodd"
         d="M -11.476,534.764 L 153.682,534.764 L 153.682,517.756 L -11.476,517.756 L -11.476,534.764 z" />
    </clipPath>
    <clipPath
       id="clipPath2480"
       clipPathUnits="userSpaceOnUse">
      <path
         id="path2482"
         d="M 463.126,1233.087 L 31.328,1233.087 L 31.328,434.666 L 463.126,434.666 L 463.126,1233.087 z" />
    </clipPath>
    <clipPath
       id="clipPath2474"
       clipPathUnits="userSpaceOnUse">
      <path
         id="path2476"
         d="M 141.376,534.699 L 420.864,534.699 L 420.864,517.86 L 141.376,517.86 L 141.376,534.699 z" />
    </clipPath>
    <clipPath
       id="clipPath2456"
       clipPathUnits="userSpaceOnUse">
      <path
         id="path2458"
         d="M 0,841.98 L 595.2,841.98 L 595.2,0 L 0,0 L 0,841.98 z" />
    </clipPath>
    <clipPath
       id="clipPath2450"
       clipPathUnits="userSpaceOnUse">
      <path
         id="path2452"
         d="M -0.138,841.945 L 595.138,841.945 L 595.138,0.055 L -0.138,0.055 L -0.138,841.945 z" />
    </clipPath>
    <clipPath
       id="clipPath2444"
       clipPathUnits="userSpaceOnUse">
      <path
         id="path2446"
         clip-rule="evenodd"
         d="M -11.476,534.764 L 153.682,534.764 L 153.682,517.756 L -11.476,517.756 L -11.476,534.764 z" />
    </clipPath>
    <clipPath
       id="clipPath2438"
       clipPathUnits="userSpaceOnUse">
      <path
         id="path2440"
         d="M 463.126,1233.087 L 31.328,1233.087 L 31.328,434.666 L 463.126,434.666 L 463.126,1233.087 z" />
    </clipPath>
    <clipPath
       id="clipPath2428"
       clipPathUnits="userSpaceOnUse">
      <path
         id="path2430"
         d="M 0,841.98 L 595.2,841.98 L 595.2,0 L 0,0 L 0,841.98 z" />
    </clipPath>
    <clipPath
       id="clipPath2422"
       clipPathUnits="userSpaceOnUse">
      <path
         id="path2424"
         d="M -0.138,841.945 L 595.138,841.945 L 595.138,0.055 L -0.138,0.055 L -0.138,841.945 z" />
    </clipPath>
    <clipPath
       id="clipPath2410"
       clipPathUnits="userSpaceOnUse">
      <path
         id="path2412"
         d="M 0,841.98 L 595.2,841.98 L 595.2,0 L 0,0 L 0,841.98 z" />
    </clipPath>
    <clipPath
       id="clipPath2404"
       clipPathUnits="userSpaceOnUse">
      <path
         id="path2406"
         d="M -0.138,841.945 L 595.138,841.945 L 595.138,0.055 L -0.138,0.055 L -0.138,841.945 z" />
    </clipPath>
    <clipPath
       id="clipPath2398"
       clipPathUnits="userSpaceOnUse">
      <path
         id="path2400"
         clip-rule="evenodd"
         d="M 0.45599,762.397 L 604.34999,762.397 L 604.34999,526.366 L 0.45599,526.366 L 0.45599,762.397 z" />
    </clipPath>
    <inkscape:perspective
       id="perspective2390"
       inkscape:persp3d-origin="372.04724 : 350.78739 : 1"
       inkscape:vp_z="744.09448 : 526.18109 : 1"
       inkscape:vp_y="0 : 1000 : 0"
       inkscape:vp_x="0 : 526.18109 : 1"
       sodipodi:type="inkscape:persp3d" />
    <clipPath
       id="clipPath6149"
       clipPathUnits="userSpaceOnUse">
      <path
         id="path6151"
         d="M 0,841.98 L 595.2,841.98 L 595.2,0 L 0,0 L 0,841.98 z" />
    </clipPath>
    <clipPath
       id="clipPath6143"
       clipPathUnits="userSpaceOnUse">
      <path
         id="path6145"
         d="M -0.138,841.945 L 595.138,841.945 L 595.138,0.055 L -0.138,0.055 L -0.138,841.945 z" />
    </clipPath>
    <clipPath
       id="clipPath6131"
       clipPathUnits="userSpaceOnUse">
      <path
         id="path6133"
         clip-rule="evenodd"
         d="M 367.422,281.779 L 563.958,281.779 L 563.958,161.779 L 367.422,161.779 L 367.422,281.779 z" />
    </clipPath>
    <clipPath
       id="clipPath6121"
       clipPathUnits="userSpaceOnUse">
      <path
         id="path6123"
         d="M 0,841.98 L 595.2,841.98 L 595.2,0 L 0,0 L 0,841.98 z" />
    </clipPath>
    <clipPath
       id="clipPath6115"
       clipPathUnits="userSpaceOnUse">
      <path
         id="path6117"
         d="M -0.138,841.945 L 595.138,841.945 L 595.138,0.055 L -0.138,0.055 L -0.138,841.945 z" />
    </clipPath>
    <clipPath
       id="clipPath5627"
       clipPathUnits="userSpaceOnUse">
      <path
         id="path5629"
         d="M 0,841.98 L 595.2,841.98 L 595.2,0 L 0,0 L 0,841.98 z" />
    </clipPath>
    <clipPath
       id="clipPath5621"
       clipPathUnits="userSpaceOnUse">
      <path
         id="path5623"
         d="M -0.138,841.945 L 595.138,841.945 L 595.138,0.055 L -0.138,0.055 L -0.138,841.945 z" />
    </clipPath>
    <clipPath
       id="clipPath5615"
       clipPathUnits="userSpaceOnUse">
      <path
         id="path5617"
         clip-rule="evenodd"
         d="M 199.232,534.953 L 595.862,534.953 L 595.862,517.945 L 199.232,517.945 L 199.232,534.953 z" />
    </clipPath>
    <clipPath
       id="clipPath5521"
       clipPathUnits="userSpaceOnUse">
      <path
         id="path5523"
         d="M 0,841.98 L 595.2,841.98 L 595.2,0 L 0,0 L 0,841.98 z" />
    </clipPath>
    <clipPath
       id="clipPath5515"
       clipPathUnits="userSpaceOnUse">
      <path
         id="path5517"
         d="M -0.138,841.945 L 595.138,841.945 L 595.138,0.055 L -0.138,0.055 L -0.138,841.945 z" />
    </clipPath>
    <linearGradient
       id="linearGradient5485"
       spreadMethod="pad"
       gradientTransform="matrix(-1e-6,20.760565,20.760565,1e-6,174.0605,348.11859)"
       gradientUnits="userSpaceOnUse"
       y2="0"
       x2="1"
       y1="0"
       x1="0">
      <stop
         id="stop5487"
         offset="0"
         style="stop-opacity:1;stop-color:#392b4d" />
      <stop
         id="stop5489"
         offset="1"
         style="stop-opacity:1;stop-color:#382947" />
    </linearGradient>
    <clipPath
       id="clipPath5467"
       clipPathUnits="userSpaceOnUse">
      <path
         id="path5469"
         d="M 181.626,359.62 C 181.57,359.769 181.479,359.939 181.331,360.087 C 181.181,360.237 181.026,360.328 180.895,360.384 C 181.241,360.253 181.51,359.972 181.626,359.62" />
    </clipPath>
    <clipPath
       id="clipPath5455"
       clipPathUnits="userSpaceOnUse">
      <path
         id="path5457"
         d="M 166.434,354.367 L 166.434,360.464 L 166.505,360.464 L 166.505,354.375 C 166.481,354.372 166.458,354.37 166.434,354.367" />
    </clipPath>
    <clipPath
       id="clipPath5441"
       clipPathUnits="userSpaceOnUse">
      <path
         id="path5443"
         d="M 166.505,345.27 L 125.935,345.27 C 125.572,345.27 125.275,345.567 125.275,345.929 L 125.275,359.808 C 125.275,360.173 125.572,360.467 125.935,360.467 L 166.505,360.467 L 166.505,360.464 L 166.434,360.464 L 166.434,354.367 C 166.458,354.37 166.481,354.372 166.505,354.375 L 166.505,345.27" />
    </clipPath>
    <clipPath
       id="clipPath5421"
       clipPathUnits="userSpaceOnUse">
      <path
         id="path5423"
         d="M 124.236,343.036 C 123.565,343.036 123.324,343.479 123.324,343.945 L 123.324,361.251 C 123.324,361.679 123.671,362.026 124.099,362.026 L 183.158,362.047 C 183.585,362.047 183.933,361.7 183.933,361.272 L 183.933,343.966 C 183.933,343.301 183.455,343.054 183.021,343.054 L 124.236,343.036 M 123.355,343.852 C 123.377,343.344 123.751,343.093 124.203,343.093 L 183.069,343.093 C 183.529,343.093 183.897,343.354 183.906,343.882 C 183.908,343.909 183.909,343.937 183.909,343.966 L 183.906,361.141 C 183.906,361.676 183.553,361.988 183.015,361.988 L 183.012,361.988 C 183.095,361.988 183.176,361.971 183.252,361.94 C 183.179,361.954 183.103,361.961 183.021,361.961 L 183.018,361.961 C 183.443,361.961 183.805,361.51 183.805,361.088 L 183.805,344.135 C 183.805,343.485 183.55,343.336 183.03,343.336 L 124.263,343.315 C 123.738,343.315 123.487,343.562 123.451,343.997 C 123.45,344.021 123.449,344.045 123.449,344.07 L 123.449,361.088 C 123.449,361.51 123.853,361.961 124.271,361.961 L 124.233,361.961 C 124.218,361.961 124.203,361.961 124.189,361.96 C 124.218,361.965 124.248,361.967 124.277,361.967 L 124.239,361.967 C 123.698,361.967 123.354,361.655 123.354,361.118 L 123.351,343.945 C 123.351,343.913 123.352,343.882 123.355,343.852 M 166.505,345.27 L 166.505,345.258 L 181.714,345.258 L 181.714,359.232 C 181.714,359.232 181.707,359.404 181.626,359.62 C 181.51,359.972 181.241,360.253 180.895,360.384 C 180.71,360.463 180.574,360.47 180.574,360.47 L 166.505,360.47 L 166.505,360.467 L 125.935,360.467 C 125.572,360.467 125.275,360.173 125.275,359.808 L 125.275,345.929 C 125.275,345.567 125.572,345.27 125.935,345.27 L 166.505,345.27" />
    </clipPath>
    <linearGradient
       id="linearGradient5391"
       spreadMethod="pad"
       gradientTransform="matrix(-1e-6,20.73753,20.73753,1e-6,173.90573,252.7621)"
       gradientUnits="userSpaceOnUse"
       y2="0"
       x2="1"
       y1="0"
       x1="0">
      <stop
         id="stop5393"
         offset="0"
         style="stop-opacity:1;stop-color:#392b4d" />
      <stop
         id="stop5395"
         offset="1"
         style="stop-opacity:1;stop-color:#382947" />
    </linearGradient>
    <clipPath
       id="clipPath5373"
       clipPathUnits="userSpaceOnUse">
      <path
         id="path5375"
         d="M 181.481,264.194 C 181.427,264.355 181.333,264.55 181.166,264.717 C 181.014,264.869 180.857,264.961 180.725,265.017 C 181.091,264.88 181.375,264.574 181.481,264.194" />
    </clipPath>
    <clipPath
       id="clipPath5361"
       clipPathUnits="userSpaceOnUse">
      <path
         id="path5363"
         d="M 166.289,259.003 L 166.289,265.094 L 166.36,265.094 L 166.36,259.011 C 166.337,259.009 166.313,259.006 166.289,259.003" />
    </clipPath>
    <clipPath
       id="clipPath5347"
       clipPathUnits="userSpaceOnUse">
      <path
         id="path5349"
         d="M 166.36,249.909 L 125.844,249.909 C 125.481,249.909 125.184,250.203 125.184,250.568 L 125.184,264.438 C 125.184,264.803 125.481,265.097 125.844,265.097 L 166.36,265.097 L 166.36,265.094 L 166.289,265.094 L 166.289,259.003 C 166.313,259.006 166.337,259.009 166.36,259.011 L 166.36,249.909" />
    </clipPath>
    <clipPath
       id="clipPath5327"
       clipPathUnits="userSpaceOnUse">
      <path
         id="path5329"
         d="M 124.133,247.678 C 123.465,247.678 123.224,248.121 123.224,248.587 L 123.224,265.873 C 123.224,266.297 123.571,266.645 123.999,266.645 L 182.977,266.666 C 183.405,266.666 183.753,266.318 183.753,265.893 L 183.753,248.608 C 183.753,247.943 183.277,247.699 182.844,247.699 L 124.133,247.678 M 123.255,248.494 C 123.277,247.989 123.651,247.738 124.103,247.738 L 182.891,247.738 C 183.358,247.738 183.729,248.005 183.729,248.543 L 183.729,248.607 C 183.729,248.608 183.729,248.608 183.729,248.608 L 183.726,265.76 C 183.726,266.294 183.375,266.606 182.838,266.606 L 182.835,266.606 C 182.917,266.606 182.996,266.589 183.071,266.559 C 183,266.572 182.924,266.579 182.844,266.579 L 182.841,266.579 C 183.263,266.579 183.625,266.131 183.625,265.709 L 183.625,248.777 C 183.625,248.127 183.372,247.978 182.853,247.978 L 124.16,247.958 C 123.638,247.958 123.387,248.204 123.351,248.639 C 123.35,248.663 123.349,248.687 123.349,248.712 L 123.349,265.709 C 123.349,266.131 123.75,266.579 124.171,266.579 L 124.13,266.579 C 124.116,266.579 124.102,266.579 124.089,266.579 C 124.118,266.583 124.148,266.585 124.177,266.585 L 124.136,266.585 C 123.598,266.585 123.254,266.274 123.254,265.739 L 123.251,248.587 C 123.251,248.555 123.252,248.524 123.255,248.494 M 166.36,249.909 L 166.36,249.906 L 181.549,249.906 L 181.549,263.862 C 181.549,263.862 181.543,264.005 181.481,264.194 C 181.375,264.574 181.091,264.88 180.725,265.017 C 180.544,265.093 180.411,265.1 180.411,265.1 L 166.36,265.1 L 166.36,265.097 L 125.844,265.097 C 125.481,265.097 125.184,264.803 125.184,264.438 L 125.184,250.568 C 125.184,250.203 125.481,249.909 125.844,249.909 L 166.36,249.909" />
    </clipPath>
    <linearGradient
       id="linearGradient5297"
       spreadMethod="pad"
       gradientTransform="matrix(-1e-6,20.784721,20.784721,1e-6,174.02782,180.32976)"
       gradientUnits="userSpaceOnUse"
       y2="0"
       x2="1"
       y1="0"
       x1="0">
      <stop
         id="stop5299"
         offset="0"
         style="stop-opacity:1;stop-color:#392b4d" />
      <stop
         id="stop5301"
         offset="1"
         style="stop-opacity:1;stop-color:#382947" />
    </linearGradient>
    <clipPath
       id="clipPath5279"
       clipPathUnits="userSpaceOnUse">
      <path
         id="path5281"
         d="M 181.606,191.832 C 181.55,191.984 181.458,192.158 181.305,192.31 C 181.149,192.468 180.986,192.561 180.851,192.617 C 181.209,192.487 181.49,192.196 181.606,191.832" />
    </clipPath>
    <clipPath
       id="clipPath5267"
       clipPathUnits="userSpaceOnUse">
      <path
         id="path5269"
         d="M 166.39,186.587 L 166.39,192.69 L 166.461,192.69 L 166.461,186.595 C 166.437,186.592 166.414,186.589 166.39,186.587" />
    </clipPath>
    <clipPath
       id="clipPath5253"
       clipPathUnits="userSpaceOnUse">
      <path
         id="path5255"
         d="M 173.384,177.457 L 125.846,177.457 C 125.481,177.457 125.187,177.754 125.187,178.119 L 125.187,192.031 C 125.187,192.399 125.481,192.693 125.846,192.693 L 166.461,192.693 L 166.461,192.69 L 166.39,192.69 L 166.39,186.587 C 166.414,186.589 166.437,186.592 166.461,186.595 L 166.461,177.466 L 173.492,177.466 C 173.457,177.46 173.421,177.457 173.384,177.457" />
    </clipPath>
    <clipPath
       id="clipPath5233"
       clipPathUnits="userSpaceOnUse">
      <path
         id="path5235"
         d="M 124.136,175.247 C 123.465,175.247 123.224,175.69 123.224,176.159 L 123.224,193.486 C 123.224,193.914 123.571,194.261 123.999,194.261 L 183.126,194.282 C 183.557,194.282 183.904,193.934 183.904,193.507 L 183.904,176.18 C 183.904,175.512 183.426,175.268 182.989,175.268 L 124.136,175.247 M 123.255,176.065 C 123.277,175.558 123.651,175.307 124.103,175.307 L 183.04,175.307 C 183.5,175.307 183.868,175.568 183.877,176.095 C 183.879,176.123 183.88,176.151 183.88,176.18 L 183.877,193.373 C 183.877,193.911 183.524,194.223 182.983,194.223 C 183.065,194.223 183.145,194.205 183.22,194.175 C 183.149,194.189 183.072,194.196 182.992,194.196 L 182.989,194.196 C 183.411,194.196 183.776,193.744 183.776,193.323 L 183.776,176.349 C 183.776,175.696 183.521,175.547 182.998,175.547 L 124.163,175.526 C 123.636,175.526 123.386,175.777 123.35,176.215 C 123.349,176.236 123.349,176.258 123.349,176.281 L 123.349,193.323 C 123.349,193.744 123.753,194.196 124.174,194.196 L 124.133,194.196 C 124.119,194.196 124.105,194.195 124.091,194.195 C 124.121,194.199 124.151,194.202 124.18,194.202 L 124.139,194.202 C 123.598,194.202 123.254,193.89 123.254,193.352 L 123.251,176.159 C 123.251,176.127 123.252,176.096 123.255,176.065 M 125.187,178.119 C 125.187,177.754 125.481,177.457 125.846,177.457 L 173.384,177.457 C 173.421,177.457 173.457,177.46 173.492,177.466 L 181.691,177.466 L 181.691,191.454 C 181.691,191.454 181.684,191.621 181.606,191.832 C 181.49,192.196 181.209,192.487 180.851,192.617 C 180.675,192.689 180.548,192.696 180.548,192.696 L 166.461,192.696 L 166.461,192.693 L 125.846,192.693 C 125.481,192.693 125.187,192.399 125.187,192.031 L 125.187,178.119" />
    </clipPath>
    <linearGradient
       id="linearGradient5203"
       spreadMethod="pad"
       gradientTransform="matrix(-1e-6,20.751259,20.751259,1e-6,173.9628,108.74954)"
       gradientUnits="userSpaceOnUse"
       y2="0"
       x2="1"
       y1="0"
       x1="0">
      <stop
         id="stop5205"
         offset="0"
         style="stop-opacity:1;stop-color:#392b4d" />
      <stop
         id="stop5207"
         offset="1"
         style="stop-opacity:1;stop-color:#382947" />
    </linearGradient>
    <clipPath
       id="clipPath5185"
       clipPathUnits="userSpaceOnUse">
      <path
         id="path5187"
         d="M 181.528,120.239 C 181.472,120.389 181.381,120.561 181.231,120.711 C 181.076,120.868 180.914,120.961 180.78,121.016 C 181.133,120.887 181.412,120.6 181.528,120.239" />
    </clipPath>
    <clipPath
       id="clipPath5173"
       clipPathUnits="userSpaceOnUse">
      <path
         id="path5175"
         d="M 166.339,114.994 L 166.339,121.091 L 166.411,121.091 L 166.411,115.002 C 166.387,114.999 166.364,114.997 166.339,114.994" />
    </clipPath>
    <clipPath
       id="clipPath5159"
       clipPathUnits="userSpaceOnUse">
      <path
         id="path5161"
         d="M 166.411,105.897 L 125.858,105.897 C 125.493,105.897 125.199,106.191 125.199,106.556 L 125.199,120.435 C 125.199,120.797 125.493,121.094 125.858,121.094 L 166.411,121.094 L 166.411,121.091 L 166.339,121.091 L 166.339,114.994 C 166.364,114.997 166.387,114.999 166.411,115.002 L 166.411,105.897" />
    </clipPath>
    <clipPath
       id="clipPath5139"
       clipPathUnits="userSpaceOnUse">
      <path
         id="path5141"
         d="M 124.136,103.66 C 123.465,103.66 123.224,104.103 123.224,104.569 L 123.224,121.869 C 123.224,122.297 123.571,122.645 123.999,122.645 L 183.034,122.665 C 183.462,122.665 183.809,122.318 183.809,121.89 L 183.809,104.59 C 183.809,103.925 183.331,103.681 182.897,103.681 L 124.136,103.66 M 123.255,104.476 C 123.277,103.971 123.651,103.717 124.103,103.717 L 182.948,103.717 C 183.405,103.717 183.773,103.981 183.782,104.505 C 183.784,104.533 183.785,104.561 183.785,104.59 L 183.782,121.756 C 183.782,122.294 183.429,122.606 182.891,122.606 L 182.888,122.606 C 182.971,122.606 183.051,122.589 183.127,122.558 C 183.055,122.572 182.978,122.579 182.897,122.579 L 182.894,122.579 C 183.319,122.579 183.681,122.128 183.681,121.706 L 183.681,104.759 C 183.681,104.109 183.426,103.96 182.906,103.96 L 124.163,103.939 C 123.638,103.939 123.387,104.189 123.351,104.622 C 123.349,104.646 123.349,104.669 123.349,104.694 L 123.349,121.706 C 123.349,122.128 123.75,122.579 124.171,122.579 L 124.133,122.579 C 124.128,122.579 124.123,122.579 124.118,122.579 C 124.138,122.581 124.158,122.582 124.177,122.582 L 124.139,122.582 C 123.598,122.582 123.254,122.273 123.254,121.736 L 123.251,104.569 C 123.251,104.537 123.252,104.506 123.255,104.476 M 166.411,105.897 L 166.411,105.891 L 181.614,105.891 L 181.614,119.856 C 181.614,119.856 181.607,120.025 181.528,120.239 C 181.412,120.6 181.133,120.887 180.78,121.016 C 180.602,121.09 180.474,121.097 180.474,121.097 L 166.411,121.097 L 166.411,121.094 L 125.858,121.094 C 125.493,121.094 125.199,120.797 125.199,120.435 L 125.199,106.556 C 125.199,106.191 125.493,105.897 125.858,105.897 L 166.411,105.897" />
    </clipPath>
    <clipPath
       id="clipPath5127"
       clipPathUnits="userSpaceOnUse">
      <path
         id="path5129"
         clip-rule="evenodd"
         d="M 351.177,360.665 L 389.344,360.665 L 389.344,337.12 L 351.177,337.12 L 351.177,360.665 z" />
    </clipPath>
    <clipPath
       id="clipPath5049"
       clipPathUnits="userSpaceOnUse">
      <path
         id="path5051"
         d="M 0,841.98 L 595.2,841.98 L 595.2,0 L 0,0 L 0,841.98 z" />
    </clipPath>
    <clipPath
       id="clipPath5043"
       clipPathUnits="userSpaceOnUse">
      <path
         id="path5045"
         d="M -0.138,841.945 L 595.138,841.945 L 595.138,0.055 L -0.138,0.055 L -0.138,841.945 z" />
    </clipPath>
    <clipPath
       id="clipPath5031"
       clipPathUnits="userSpaceOnUse">
      <path
         id="path5033"
         d="M 0,841.98 L 595.2,841.98 L 595.2,0 L 0,0 L 0,841.98 z" />
    </clipPath>
    <clipPath
       id="clipPath5025"
       clipPathUnits="userSpaceOnUse">
      <path
         id="path5027"
         d="M -0.138,841.945 L 595.138,841.945 L 595.138,0.055 L -0.138,0.055 L -0.138,841.945 z" />
    </clipPath>
    <clipPath
       id="clipPath5019"
       clipPathUnits="userSpaceOnUse">
      <path
         id="path5021"
         clip-rule="evenodd"
         d="M -0.47598,842.034 L 595.35502,842.034 L 595.35502,526.366 L -0.47598,526.366 L -0.47598,842.034 z" />
    </clipPath>
    <clipPath
       id="clipPath5005"
       clipPathUnits="userSpaceOnUse">
      <path
         id="path5007"
         d="M 0,841.98 L 595.2,841.98 L 595.2,0 L 0,0 L 0,841.98 z" />
    </clipPath>
    <clipPath
       id="clipPath4999"
       clipPathUnits="userSpaceOnUse">
      <path
         id="path5001"
         d="M -0.138,841.945 L 595.138,841.945 L 595.138,0.055 L -0.138,0.055 L -0.138,841.945 z" />
    </clipPath>
    <inkscape:perspective
       id="perspective4991"
       inkscape:persp3d-origin="372.04724 : 350.78739 : 1"
       inkscape:vp_z="744.09448 : 526.18109 : 1"
       inkscape:vp_y="0 : 1000 : 0"
       inkscape:vp_x="0 : 526.18109 : 1"
       sodipodi:type="inkscape:persp3d" />
  </defs>
  <sodipodi:namedview
     id="base"
     pagecolor="#ffffff"
     bordercolor="#666666"
     borderopacity="1.0"
     inkscape:pageopacity="0.0"
     inkscape:pageshadow="2"
     inkscape:zoom="0.35"
     inkscape:cx="206.67558"
     inkscape:cy="587.38174"
     inkscape:document-units="px"
     inkscape:current-layer="layer1"
     showgrid="false"
     inkscape:window-width="1024"
     inkscape:window-height="718"
     inkscape:window-x="-8"
     inkscape:window-y="-8" />
  <metadata
     id="metadata7">
    <rdf:RDF>
      <cc:Work
         rdf:about="">
        <dc:format>image/svg+xml</dc:format>
        <dc:type
           rdf:resource="http://purl.org/dc/dcmitype/StillImage" />
      </cc:Work>
    </rdf:RDF>
  </metadata>
  <g
     inkscape:label="Ebene 1"
     inkscape:groupmode="layer"
     id="layer1">
    <g
       id="g4931"
       transform="matrix(13.02035,0,0,13.02035,-1809.1498,-9030.2044)">
      <path
         id="path3572"
         style="fill:#231f20;fill-opacity:1;fill-rule:nonzero;stroke:none"
         d="M 169.995,708.0193 C 170.2,708.0643 170.30625,707.8118 170.1775,707.67805 C 169.43625,706.9568 169.40125,706.0768 169.4,705.4293 C 169.39625,704.65805 169.43625,703.8968 170.1775,703.1768 C 170.30625,703.0418 170.2,702.79055 169.995,702.83555 C 169.65625,702.8668 168.1175,703.7843 168.1175,705.3543 C 168.1175,706.97555 169.64625,707.9893 169.995,708.0193 z M 167.10375,702.18305 C 170.36125,700.10055 174.54875,700.3693 178.38375,701.04305 C 178.925,701.1393 179.09875,700.4343 179.09875,700.4343 L 180.0225,700.5043 L 180.6925,704.5468 C 180.6925,704.5468 180.6375,704.57555 179.7675,704.85055 C 179.59375,704.9168 179.51375,704.84805 179.49875,704.76805 C 178.88375,703.2493 176.92875,702.2618 174.80125,702.21305 C 173.85875,702.32305 172.6875,702.20805 172.25125,703.2068 C 172.035,703.6793 172.035,706.99805 172.17375,707.6293 C 172.25,708.0343 172.4375,708.4868 172.87625,708.6368 C 175.26375,709.2043 177.87375,708.60805 179.94875,707.4043 C 180.105,707.3443 180.2125,707.41305 180.26,707.5618 L 180.72375,709.27305 C 176.5875,710.6868 170.7475,711.30055 166.9625,708.72805 C 165.81875,707.9193 165.05125,706.9818 165.05125,705.5018 C 165.05125,704.06555 165.97,702.9743 167.10375,702.18305" />
      <path
         id="path3574"
         style="fill:#231f20;fill-opacity:1;fill-rule:nonzero;stroke:none"
         d="M 200.115,703.03055 L 200.7775,702.7643 C 200.88625,702.72305 200.97125,702.7818 200.97125,702.9018 L 200.97125,707.51055 C 200.97125,707.6293 200.88625,707.75805 200.7775,707.8018 L 200.115,708.06555 C 200.0075,708.1093 199.92125,708.04805 199.92125,707.9293 L 199.92125,703.32055 C 199.92125,703.20305 200.0075,703.07305 200.115,703.03055 z M 189.7525,702.8818 C 189.715,702.84555 189.6925,702.7968 189.6925,702.73805 C 189.6925,702.6318 189.77875,702.5468 189.87625,702.5468 L 190.6625,702.5468 L 190.6725,702.54055 C 190.73375,702.53805 190.7975,702.5618 190.84625,702.61305 L 193.215,705.1243 C 193.3075,705.2218 193.31,705.3843 193.22,705.48555 L 192.89,705.8643 C 192.79875,705.9643 192.6525,705.96805 192.56,705.8693 L 189.7325,702.85555 L 189.7525,702.8818 z M 194.76625,703.6793 L 192.25875,700.96805 L 192.2725,700.96805 L 184.45875,700.96805 L 184.45875,701.92555 C 184.43875,702.05055 184.4875,702.16805 184.80625,702.2543 C 185.0875,702.33055 185.445,702.4768 185.7225,702.58555 C 185.9675,702.6843 186.03125,702.82555 186.02375,703.0193 L 186.02375,708.23805 C 186.03125,708.43055 185.9675,708.5718 185.7225,708.6693 C 185.445,708.78055 185.0875,708.9243 184.80625,709.0018 C 184.4875,709.08805 184.43875,709.20555 184.45875,709.33055 L 184.45875,710.28555 L 189.33,710.28555 L 189.33,709.33055 C 189.35125,709.20555 189.30125,709.08805 188.98125,709.0018 C 188.7025,708.9243 188.34375,708.78055 188.0675,708.6693 C 187.82125,708.5718 187.7575,708.43055 187.765,708.23805 L 187.76125,704.1018 C 187.76125,704.0093 187.82875,703.9318 187.91625,703.9318 C 187.955,703.9318 187.98375,703.9443 188.0125,703.97055 L 192.5125,709.2043 L 197.0525,703.8493 C 197.0825,703.80555 197.13625,703.78305 197.1875,703.78305 C 197.2725,703.78305 197.33,703.8593 197.33,703.95305 L 197.34125,708.23805 C 197.3475,708.43055 197.28375,708.5718 197.04,708.6693 C 196.7625,708.78055 196.405,708.9243 196.125,709.0018 C 195.805,709.08805 195.75625,709.20555 195.77625,709.33055 L 195.77625,710.28555 L 205.08875,710.28555 L 205.09,709.33055 C 205.11125,709.20555 205.0625,709.08805 204.74,709.0018 C 204.46125,708.9243 204.10375,708.78055 203.82625,708.6693 C 203.58,708.5718 203.52,708.43055 203.525,708.23805 L 203.525,703.0193 C 203.52,702.82555 203.58,702.6843 203.82625,702.58555 C 204.10375,702.4768 204.46125,702.33055 204.74,702.2543 C 205.0625,702.16805 205.11125,702.05055 205.09,701.92555 L 205.08875,700.96805 L 197.26375,700.96805 L 194.95,703.6743 C 194.9275,703.70055 194.895,703.7168 194.86125,703.7168 C 194.825,703.7168 194.78625,703.70805 194.76625,703.6793" />
      <path
         id="path3576"
         style="fill:#231f20;fill-opacity:1;fill-rule:nonzero;stroke:none"
         d="M 154.87,707.7443 C 154.87,707.86305 154.78375,707.99305 154.67625,708.0343 L 154.01125,708.30055 C 153.90375,708.3443 153.81625,708.28055 153.81625,708.1668 L 153.81625,703.5543 C 153.81625,703.43805 153.90375,703.3068 154.01125,703.2643 L 154.67625,703.00055 C 154.78375,702.95555 154.87,703.0168 154.87,703.13305 L 154.87,707.7443 z M 161.80375,700.96805 L 146.805,700.96805 C 146.805,700.96805 146.23875,703.3843 145.91875,704.50805 L 146.78625,704.86555 C 147.035,704.9693 147.0625,704.8043 147.20125,704.6518 C 147.935,703.14805 149.54,702.0443 151.11625,702.57055 L 151.11375,708.23805 C 151.1225,708.43055 151.06,708.5718 150.8125,708.6693 C 150.53625,708.78055 150.1775,708.9243 149.8975,709.0018 C 149.5775,709.08805 149.52875,709.20555 149.55,709.33055 L 149.55,710.28555 L 159.06,710.28555 L 159.0625,709.33055 C 159.08375,709.20555 159.03375,709.08805 158.71375,709.0018 C 158.4325,708.9243 158.075,708.78055 157.79875,708.6693 C 157.55125,708.5718 157.48875,708.43055 157.4975,708.23805 L 157.495,702.57055 C 159.07,702.0443 160.67625,703.14805 161.40875,704.6518 C 161.5475,704.8043 161.575,704.9693 161.82375,704.86555 L 162.6925,704.50805 C 162.3725,703.3843 161.80375,700.96805 161.80375,700.96805" />
      <path
         id="path3578"
         style="fill:#231f20;fill-opacity:1;fill-rule:nonzero;stroke:none"
         d="M 214.88875,715.03305 C 214.89375,714.91555 214.8675,714.80805 214.75,714.71305 C 214.64125,714.6368 214.56875,714.6368 214.49,714.6368 C 214.13,714.6368 214.06375,715.0543 214.2425,715.18055 C 214.3,715.2218 214.37875,715.25305 214.48,715.2743 C 214.61,715.32055 214.7425,715.36305 214.8675,715.4093 C 215.005,715.46805 215.1275,715.6568 215.13625,715.84555 C 215.15125,716.2393 214.8525,716.49555 214.52,716.48305 C 214.3125,716.47555 214.15625,716.44305 214.015,716.23555 C 213.9125,716.07555 213.91,715.95055 213.905,715.7993 L 214.0925,715.7993 C 214.09,715.9143 214.125,716.1868 214.395,716.24555 C 214.44,716.2543 214.52125,716.2643 214.6025,716.2543 C 214.6825,716.24555 214.76375,716.2218 214.8225,716.1593 C 214.92125,716.05305 215,715.82805 214.8125,715.6668 C 214.72,715.60805 214.5925,715.5668 214.485,715.5393 C 214.2725,715.4768 214.37875,715.5093 214.16625,715.4218 C 214.09875,715.39305 213.97625,715.3093 213.96,715.05805 C 213.93125,714.7443 214.1025,714.42555 214.485,714.42555 C 214.615,714.42555 214.7725,714.4568 214.86375,714.53055 C 215.07875,714.69055 215.0925,714.94305 215.0825,715.03305 L 214.88875,715.03305" />
      <path
         id="path3580"
         style="fill:#231f20;fill-opacity:1;fill-rule:nonzero;stroke:none"
         d="M 216.3275,716.4218 L 215.9,714.82805 L 215.9,716.4218 L 215.6925,716.4218 L 215.6925,714.4568 L 215.98,714.4568 L 216.43,716.1268 L 216.88375,714.4568 L 217.165,714.4568 L 217.165,716.4218 L 216.96,716.4218 L 216.96,714.82805 L 216.53375,716.4218 L 216.3275,716.4218" />
      <path
         id="path3582"
         style="fill:#231f20;fill-opacity:1;fill-rule:nonzero;stroke:none"
         d="M 210.64125,714.82305 L 141.63875,714.82305 L 141.63875,695.5868 L 210.64125,695.5868 L 210.64125,714.82305 z M 212.44,693.9868 L 139.82,693.9868 C 139.57,693.9868 139.3675,694.1893 139.3675,694.4393 L 139.3675,715.97055 C 139.3675,716.2193 139.57,716.4218 139.82,716.4218 L 212.44,716.4218 C 212.69125,716.4218 212.895,716.2193 212.895,715.97055 L 212.895,694.4393 C 212.895,694.1893 212.69125,693.9868 212.44,693.9868" />
      <path
         id="path3584"
         style="fill:#231f20;fill-opacity:1;fill-rule:nonzero;stroke:none"
         d="M 140.86375,720.39055 L 140.86375,723.40805 L 140.33375,723.40805 L 140.33375,720.39055 L 139.3725,720.39055 L 139.3725,719.91555 L 141.825,719.91555 L 141.825,720.39055 L 140.86375,720.39055" />
      <path
         id="path3586"
         style="fill:#231f20;fill-opacity:1;fill-rule:nonzero;stroke:none"
         d="M 144.28,723.4368 C 143.56875,723.4368 143.02875,722.95305 143.02875,722.23055 L 143.02875,719.91555 L 143.56,719.91555 L 143.56,722.20555 C 143.56,722.6718 143.84375,722.9618 144.28,722.9618 C 144.71625,722.9618 145.00625,722.6718 145.00625,722.20555 L 145.00625,719.91555 L 145.535,719.91555 L 145.535,722.23055 C 145.535,722.95305 144.99125,723.4368 144.28,723.4368" />
      <path
         id="path3588"
         style="fill:#231f20;fill-opacity:1;fill-rule:nonzero;stroke:none"
         d="M 149.79625,723.40805 L 148.9925,721.86305 C 149.38375,721.7543 149.68875,721.4368 149.68875,720.93555 C 149.68875,720.3418 149.26625,719.91555 148.605,719.91555 L 147.25125,719.91555 L 147.25125,723.40805 L 147.78125,723.40805 L 147.78125,721.9368 L 148.4425,721.9368 L 149.17875,723.40805 L 149.79625,723.40805 z M 149.15875,720.94055 C 149.15875,721.2843 148.91875,721.48555 148.56625,721.48555 L 147.78125,721.48555 L 147.78125,720.39055 L 148.56625,720.39055 C 148.91875,720.39055 149.15875,720.5968 149.15875,720.94055" />
      <path
         id="path3590"
         style="fill:#231f20;fill-opacity:1;fill-rule:nonzero;stroke:none"
         d="M 153.46375,723.40805 L 151.85125,720.95055 L 151.85125,723.40805 L 151.32125,723.40805 L 151.32125,719.91555 L 151.80625,719.91555 L 153.42,722.36805 L 153.42,719.91555 L 153.94875,719.91555 L 153.94875,723.40805 L 153.46375,723.40805" />
      <path
         id="path3592"
         style="fill:#231f20;fill-opacity:1;fill-rule:nonzero;stroke:none"
         d="M 155.71875,723.40805 L 155.71875,719.91555 L 157.95,719.91555 L 157.95,720.39055 L 156.24875,720.39055 L 156.24875,721.41055 L 157.7,721.41055 L 157.7,721.8818 L 156.24875,721.8818 L 156.24875,722.9318 L 157.95,722.9318 L 157.95,723.40805 L 155.71875,723.40805" />
      <path
         id="path3594"
         style="fill:#231f20;fill-opacity:1;fill-rule:nonzero;stroke:none"
         d="M 162.07875,723.40805 L 161.275,721.86305 C 161.66625,721.7543 161.97,721.4368 161.97,720.93555 C 161.97,720.3418 161.54875,719.91555 160.88625,719.91555 L 159.53375,719.91555 L 159.53375,723.40805 L 160.06375,723.40805 L 160.06375,721.9368 L 160.725,721.9368 L 161.46,723.40805 L 162.07875,723.40805 z M 161.44125,720.94055 C 161.44125,721.2843 161.20125,721.48555 160.8475,721.48555 L 160.06375,721.48555 L 160.06375,720.39055 L 160.8475,720.39055 C 161.20125,720.39055 161.44125,720.5968 161.44125,720.94055" />
      <path
         id="path3596"
         style="fill:#231f20;fill-opacity:1;fill-rule:nonzero;stroke:none"
         d="M 166.59875,723.4368 C 166.23625,723.4368 165.9225,723.30555 165.68125,723.06555 C 165.33875,722.72055 165.34375,722.33305 165.34375,721.6618 C 165.34375,720.9893 165.33875,720.6018 165.68125,720.25805 C 165.9225,720.01805 166.23625,719.8868 166.59875,719.8868 C 167.24125,719.8868 167.7225,720.26305 167.845,720.96055 L 167.305,720.96055 C 167.22125,720.6068 166.98625,720.3618 166.59875,720.3618 C 166.3925,720.3618 166.20625,720.44055 166.08375,720.57305 C 165.9125,720.7593 165.8725,720.96055 165.8725,721.6618 C 165.8725,722.3643 165.9125,722.56555 166.08375,722.7518 C 166.20625,722.88305 166.3925,722.9618 166.59875,722.9618 C 166.98625,722.9618 167.2275,722.71555 167.31,722.3643 L 167.845,722.3643 C 167.72625,723.0593 167.23125,723.4368 166.59875,723.4368" />
      <path
         id="path3598"
         style="fill:#231f20;fill-opacity:1;fill-rule:nonzero;stroke:none"
         d="M 169.20625,723.40805 L 169.20625,719.91555 L 169.735,719.91555 L 169.735,722.9318 L 171.4175,722.9318 L 171.4175,723.40805 L 169.20625,723.40805" />
      <path
         id="path3600"
         style="fill:#231f20;fill-opacity:1;fill-rule:nonzero;stroke:none"
         d="M 175.24625,723.40805 L 173.96625,719.91555 L 173.53875,719.91555 L 172.25875,723.40805 L 172.82375,723.40805 L 173.06375,722.7068 L 174.44125,722.7068 L 174.68125,723.40805 L 175.24625,723.40805 z M 174.295,722.25555 L 173.22,722.25555 L 173.765,720.70555 L 174.295,722.25555" />
      <path
         id="path3602"
         style="fill:#231f20;fill-opacity:1;fill-rule:nonzero;stroke:none"
         d="M 177.525,723.4368 C 177,723.4368 176.6225,723.31555 176.29,722.9768 L 176.64375,722.6293 C 176.8975,722.88305 177.17625,722.9618 177.53625,722.9618 C 177.99,722.9618 178.2575,722.76555 178.2575,722.4268 C 178.2575,722.2743 178.2125,722.14805 178.11875,722.0643 C 178.03,721.98055 177.9425,721.94555 177.73625,721.9168 L 177.32375,721.85805 C 177.04125,721.81805 176.815,721.72055 176.6625,721.57805 C 176.49125,721.4168 176.4075,721.19555 176.4075,720.91055 C 176.4075,720.30305 176.84875,719.8868 177.575,719.8868 C 178.035,719.8868 178.35875,720.00305 178.6575,720.28305 L 178.32,720.6168 C 178.10375,720.41055 177.85375,720.34805 177.56,720.34805 C 177.1475,720.34805 176.9225,720.5818 176.9225,720.89055 C 176.9225,721.0193 176.96125,721.1318 177.055,721.21555 C 177.14375,721.2943 177.28625,721.35305 177.4475,721.37805 L 177.84375,721.4368 C 178.1675,721.48555 178.34875,721.56305 178.4975,721.69555 C 178.6875,721.86305 178.78125,722.1143 178.78125,722.4118 C 178.78125,723.05555 178.2575,723.4368 177.525,723.4368" />
      <path
         id="path3604"
         style="fill:#231f20;fill-opacity:1;fill-rule:nonzero;stroke:none"
         d="M 181.22625,723.4368 C 180.70375,723.4368 180.325,723.31555 179.99125,722.9768 L 180.34375,722.6293 C 180.6,722.88305 180.87875,722.9618 181.2375,722.9618 C 181.69375,722.9618 181.9575,722.76555 181.9575,722.4268 C 181.9575,722.2743 181.91375,722.14805 181.82125,722.0643 C 181.7325,721.98055 181.645,721.94555 181.43875,721.9168 L 181.025,721.85805 C 180.74125,721.81805 180.51625,721.72055 180.36375,721.57805 C 180.1925,721.4168 180.11,721.19555 180.11,720.91055 C 180.11,720.30305 180.55125,719.8868 181.2775,719.8868 C 181.7375,719.8868 182.06,720.00305 182.36,720.28305 L 182.02125,720.6168 C 181.80625,720.41055 181.55625,720.34805 181.26125,720.34805 C 180.85,720.34805 180.625,720.5818 180.625,720.89055 C 180.625,721.0193 180.66375,721.1318 180.75625,721.21555 C 180.84375,721.2943 180.9875,721.35305 181.15,721.37805 L 181.54625,721.4368 C 181.87,721.48555 182.0525,721.56305 182.19875,721.69555 C 182.38875,721.86305 182.48125,722.1143 182.48125,722.4118 C 182.48125,723.05555 181.9575,723.4368 181.22625,723.4368" />
      <path
         id="path3606"
         style="fill:#231f20;fill-opacity:1;fill-rule:nonzero;stroke:none"
         d="M 184.0525,723.40805 L 184.58179,723.40805 L 184.58179,719.9153 L 184.0525,719.9153 L 184.0525,723.40805 z" />
      <path
         id="path3608"
         style="fill:#231f20;fill-opacity:1;fill-rule:nonzero;stroke:none"
         d="M 187.4775,723.4368 C 187.1175,723.4368 186.80125,723.30555 186.56125,723.06555 C 186.21875,722.72055 186.22375,722.33305 186.22375,721.6618 C 186.22375,720.9893 186.21875,720.6018 186.56125,720.25805 C 186.80125,720.01805 187.1175,719.8868 187.4775,719.8868 C 188.12125,719.8868 188.60125,720.26305 188.72375,720.96055 L 188.185,720.96055 C 188.1025,720.6068 187.86625,720.3618 187.4775,720.3618 C 187.2725,720.3618 187.0875,720.44055 186.96375,720.57305 C 186.7925,720.7593 186.7525,720.96055 186.7525,721.6618 C 186.7525,722.3643 186.7925,722.56555 186.96375,722.7518 C 187.0875,722.88305 187.2725,722.9618 187.4775,722.9618 C 187.86625,722.9618 188.10625,722.71555 188.19,722.3643 L 188.72375,722.3643 C 188.6075,723.0593 188.11125,723.4368 187.4775,723.4368" />
      <path
         id="path3610"
         style="fill:#231f20;fill-opacity:1;fill-rule:nonzero;stroke:none"
         d="M 194.70625,723.40805 L 194.70625,721.07305 L 193.90125,722.77555 L 193.50875,722.77555 L 192.685,721.07305 L 192.685,723.40805 L 192.15625,723.40805 L 192.15625,719.91555 L 192.685,719.91555 L 193.705,722.08805 L 194.70625,719.91555 L 195.235,719.91555 L 195.235,723.40805 L 194.70625,723.40805" />
      <path
         id="path3612"
         style="fill:#231f20;fill-opacity:1;fill-rule:nonzero;stroke:none"
         d="M 199.38375,721.6618 C 199.38375,720.9893 199.39125,720.6018 199.05125,720.25805 C 198.80875,720.01805 198.5025,719.8868 198.1275,719.8868 C 197.755,719.8868 197.45125,720.01805 197.21125,720.25805 C 196.8675,720.6018 196.8725,720.9893 196.8725,721.6618 C 196.8725,722.33305 196.8675,722.72055 197.21125,723.06555 C 197.45125,723.30555 197.755,723.4368 198.1275,723.4368 C 198.5025,723.4368 198.80875,723.30555 199.05125,723.06555 C 199.39125,722.72055 199.38375,722.33305 199.38375,721.6618 z M 198.85375,721.6618 C 198.85375,722.3643 198.82,722.5593 198.6475,722.74555 C 198.52375,722.87805 198.335,722.9618 198.1275,722.9618 C 197.9225,722.9618 197.73,722.87805 197.60875,722.74555 C 197.43625,722.5593 197.4025,722.3643 197.4025,721.6618 C 197.4025,720.96055 197.43625,720.7643 197.60875,720.5768 C 197.73,720.44555 197.9225,720.3618 198.1275,720.3618 C 198.335,720.3618 198.52375,720.44555 198.6475,720.5768 C 198.82,720.7643 198.85375,720.96055 198.85375,721.6618" />
      <path
         id="path3614"
         style="fill:#231f20;fill-opacity:1;fill-rule:nonzero;stroke:none"
         d="M 202.105,723.40805 L 201.69375,723.40805 L 200.54625,719.91555 L 201.095,719.91555 L 201.9,722.4568 L 202.7025,719.91555 L 203.26125,719.91555 L 202.105,723.40805" />
      <path
         id="path3616"
         style="fill:#231f20;fill-opacity:1;fill-rule:nonzero;stroke:none"
         d="M 204.6,723.40805 L 205.131,723.40805 L 205.131,719.9153 L 204.6,719.9153 L 204.6,723.40805 z" />
      <path
         id="path3618"
         style="fill:#231f20;fill-opacity:1;fill-rule:nonzero;stroke:none"
         d="M 206.9,723.40805 L 206.9,719.91555 L 209.13125,719.91555 L 209.13125,720.39055 L 207.43,720.39055 L 207.43,721.41055 L 208.88,721.41055 L 208.88,721.8818 L 207.43,721.8818 L 207.43,722.9318 L 209.13125,722.9318 L 209.13125,723.40805 L 206.9,723.40805" />
      <path
         id="path3620"
         style="fill:#231f20;fill-opacity:1;fill-rule:nonzero;stroke:none"
         d="M 211.64,723.4368 C 211.1175,723.4368 210.74,723.31555 210.405,722.9768 L 210.75875,722.6293 C 211.015,722.88305 211.29375,722.9618 211.65125,722.9618 C 212.10625,722.9618 212.37125,722.76555 212.37125,722.4268 C 212.37125,722.2743 212.3275,722.14805 212.235,722.0643 C 212.145,721.98055 212.05875,721.94555 211.8525,721.9168 L 211.44,721.85805 C 211.155,721.81805 210.93,721.72055 210.77875,721.57805 C 210.60625,721.4168 210.5225,721.19555 210.5225,720.91055 C 210.5225,720.30305 210.96375,719.8868 211.69125,719.8868 C 212.15125,719.8868 212.47375,720.00305 212.775,720.28305 L 212.435,720.6168 C 212.22,720.41055 211.96875,720.34805 211.675,720.34805 C 211.26375,720.34805 211.03875,720.5818 211.03875,720.89055 C 211.03875,721.0193 211.0775,721.1318 211.17125,721.21555 C 211.25875,721.2943 211.40125,721.35305 211.5625,721.37805 L 211.96,721.4368 C 212.28375,721.48555 212.465,721.56305 212.6125,721.69555 C 212.8025,721.86305 212.89625,722.1143 212.89625,722.4118 C 212.89625,723.05555 212.37125,723.4368 211.64,723.4368" />
    </g>
  </g>
</svg>
