<svg xmlns="http://www.w3.org/2000/svg" xmlns:xlink="http://www.w3.org/1999/xlink" width="620" zoomAndPan="magnify" viewBox="0 0 464.87997 464.999988" height="620" preserveAspectRatio="xMidYMid meet" version="1.0"><path fill="#ffd21f" d="M 457.382812 232.46875 C 457.382812 356.699219 356.65625 457.441406 232.433594 457.441406 C 108.199219 457.441406 7.5 356.699219 7.5 232.46875 C 7.5 220.734375 8.390625 209.214844 10.132812 197.976562 L 58.167969 197.976562 L 58.167969 330.90625 L 103.738281 330.90625 L 103.738281 197.976562 L 154.785156 197.976562 L 154.785156 330.90625 L 198.316406 330.90625 L 198.316406 231.804688 L 199.253906 231.804688 L 257.21875 318.601562 C 262.984375 327.753906 268.300781 330.90625 279.378906 330.90625 L 309.304688 330.90625 L 309.304688 197.976562 L 360.519531 197.976562 L 360.519531 330.90625 L 405.339844 330.90625 L 405.339844 197.976562 L 454.730469 197.976562 C 456.472656 209.214844 457.382812 220.734375 457.382812 232.46875 Z M 153.207031 165.332031 L 197.304688 165.332031 C 208.40625 165.332031 213.945312 168.453125 219.484375 177.617188 L 265.023438 248.554688 L 266.597656 248.554688 L 266.597656 165.332031 L 447.089844 165.332031 C 418.535156 73.910156 333.210938 7.558594 232.371094 7.558594 C 131.542969 7.558594 46.195312 73.910156 17.644531 165.332031 L 153.207031 165.332031 " fill-opacity="1" fill-rule="nonzero"/></svg>