<?xml version="1.0" encoding="utf-8"?>
<!-- Generator: Adobe Illustrator 16.0.3, SVG Export Plug-In . SVG Version: 6.00 Build 0)  -->
<svg version="1.1" id="TNT_Logo" xmlns="http://www.w3.org/2000/svg" xmlns:xlink="http://www.w3.org/1999/xlink" x="0px" y="0px"
	 width="620px" height="620px" viewBox="0 0 620 620" enable-background="new 0 0 620 620" xml:space="preserve">
<path d="M610,309.959C610,475.643,475.664,610,309.991,610C144.303,610,10,475.643,10,309.959c0-15.65,1.19-31.014,3.515-46.002
	h64.064v177.284h60.773V263.958h68.082v177.284h58.058V309.073h1.247l77.308,115.757c7.692,12.208,14.778,16.41,29.556,16.41h39.909
	V263.958h68.306v177.284h59.775V263.958h65.869C608.786,278.945,610,294.309,610,309.959z M204.329,220.418h58.81
	c14.806,0,22.195,4.165,29.584,16.386l60.732,94.607h2.102V220.418h240.715C558.193,98.49,444.395,10,309.909,10
	C175.437,10,61.612,98.49,23.531,220.418H204.329"/>
</svg>
