<?xml version="1.0" encoding="utf-8"?>
<!-- Generator: Adobe Illustrator 16.0.0, SVG Export Plug-In . SVG Version: 6.00 Build 0)  -->
<!DOCTYPE svg PUBLIC "-//W3C//DTD SVG 1.1//EN" "http://www.w3.org/Graphics/SVG/1.1/DTD/svg11.dtd">
<svg version="1.1"
	 id="svg2" xmlns:dc="http://purl.org/dc/elements/1.1/" xmlns:cc="http://creativecommons.org/ns#" xmlns:rdf="http://www.w3.org/1999/02/22-rdf-syntax-ns#" xmlns:svg="http://www.w3.org/2000/svg" xmlns:sodipodi="http://sodipodi.sourceforge.net/DTD/sodipodi-0.dtd" xmlns:inkscape="http://www.inkscape.org/namespaces/inkscape" sodipodi:docname="TruTV (Prelaunch).svg" inkscape:version="0.48.4 r9939"
	 xmlns="http://www.w3.org/2000/svg" xmlns:xlink="http://www.w3.org/1999/xlink" x="0px" y="0px" width="264.994px"
	 height="99.08px" viewBox="0 0 264.994 99.08" enable-background="new 0 0 264.994 99.08" xml:space="preserve">
<sodipodi:namedview  fit-margin-top="0" fit-margin-left="0" inkscape:cy="1.9537862" inkscape:cx="217.21107" inkscape:zoom="5.6" showgrid="false" borderopacity="1.0" bordercolor="#666666" pagecolor="#ffffff" id="base" inkscape:document-units="px" fit-margin-bottom="0" inkscape:current-layer="layer1" inkscape:window-maximized="1" inkscape:window-y="-8" inkscape:window-x="-8" inkscape:window-height="706" inkscape:window-width="1366" inkscape:pageshadow="2" inkscape:pageopacity="0.0" fit-margin-right="0">
	</sodipodi:namedview>
<g id="layer1" transform="translate(68.311973,-967.66928)" inkscape:label="Layer 1" inkscape:groupmode="layer">
	<g id="layer1-9" transform="translate(-77.41187,54.168781)" inkscape:label="Layer 1">
		<g id="g21415" transform="matrix(1.73923,0,0,1.73923,-6.7269145,-772.12523)">
			<path id="path26569" inkscape:connector-curvature="0" fill="#343440" d="M31.05,981.399h7.883v11.143H31.05v31.993H16.356
				v-31.993H9.1v-11.143h7.256v-12.22H31.05V981.399"/>
			<path id="path26571" inkscape:connector-curvature="0" fill="#343440" d="M55.204,988.194h-0.181v-6.855H41.219v43.201h14.694
				v-19.443c0-7.267,4.568-8.785,11.143-9.01v-14.793C58.919,981.454,56.424,985.847,55.204,988.194"/>
			<path id="path26573" inkscape:connector-curvature="0" fill="#343440" d="M115.204,1024.53h-13.99v-5.261h-0.186
				c-3.024,6.332-9.082,6.865-12.836,6.865c-3.024,0-10.159-0.714-14.529-6.234c-3.925-4.92-4.453-8.476-4.453-15.248v-23.533
				h14.798v21.307c0,3.38,0,9.895,7.938,9.895c4.271,0,8.466-3.414,8.466-11.253v-19.949h14.792V1024.53"/>
			<path id="path26575" inkscape:connector-curvature="0" fill="#ECE711" d="M155.882,1007.384
				c-0.154-10.208-8.553-18.355-18.762-18.206c-10.214,0.154-18.36,8.554-18.206,18.762c0.154,10.208,8.554,18.36,18.756,18.206
				C147.884,1025.992,156.036,1017.592,155.882,1007.384"/>
			<path id="path26577" inkscape:connector-curvature="0" fill="#343440" d="M127.616,1000.826h-5.436v4.672h5.436v12.253h5.151
				v-12.232h5.381l-2.342-4.304h0.005l0.671,1.572l5.431,14.227l0.346,0.813h4.645l0.357-0.813l5.414-14.227l0.825-1.897h-5.497
				l-0.352,0.808l-3.062,8.268l-0.005,0.247l-0.006-0.247l-3.062-8.268l-0.363-0.808h-0.022v-0.077h-8.366L127.616,1000.826"/>
			<path id="path26621" inkscape:connector-curvature="0" fill="#343440" d="M157.384,1023.681v-2.325h-0.857v-0.308h2.072v0.308
				h-0.864v2.325H157.384"/>
			<path id="path26623" inkscape:connector-curvature="0" fill="#343440" d="M158.951,1023.681v-2.633h0.528l0.621,1.864
				l0.121,0.385l0.143-0.418l0.632-1.83h0.467v2.633h-0.335v-2.204l-0.764,2.204h-0.313l-0.764-2.248v2.248H158.951"/>
		</g>
	</g>
</g>
</svg>
