<svg xmlns="http://www.w3.org/2000/svg" xmlns:xlink="http://www.w3.org/1999/xlink" width="265" zoomAndPan="magnify" viewBox="0 0 198.75 74.249996" height="99" preserveAspectRatio="xMidYMid meet" version="1.0"><defs><clipPath id="a42ff5b861"><path d="M 0.871094 0 L 40 0 L 40 72 L 0.871094 72 Z M 0.871094 0 " clip-rule="nonzero"/></clipPath><clipPath id="e86a2468c3"><path d="M 78 15 L 138 15 L 138 73.507812 L 78 73.507812 Z M 78 15 " clip-rule="nonzero"/></clipPath><clipPath id="a18d0c8727"><path d="M 142 25 L 191 25 L 191 73.507812 L 142 73.507812 Z M 142 25 " clip-rule="nonzero"/></clipPath><clipPath id="cb8ac49c1a"><path d="M 194 66 L 197.632812 66 L 197.632812 71 L 194 71 Z M 194 66 " clip-rule="nonzero"/></clipPath></defs><g clip-path="url(#a42ff5b861)"><path fill="#ffffff" d="M 29.273438 15.765625 L 39.445312 15.765625 L 39.445312 30.144531 L 29.273438 30.144531 L 29.273438 71.425781 L 10.316406 71.425781 L 10.316406 30.144531 L 0.953125 30.144531 L 0.953125 15.765625 L 10.316406 15.765625 L 10.316406 0 L 29.273438 0 L 29.273438 15.765625 " fill-opacity="1" fill-rule="nonzero"/></g><path fill="#ffffff" d="M 60.441406 24.535156 L 60.207031 24.535156 L 60.207031 15.691406 L 42.394531 15.691406 L 42.394531 71.433594 L 61.355469 71.433594 L 61.355469 46.347656 C 61.355469 36.96875 67.25 35.011719 75.734375 34.71875 L 75.734375 15.632812 C 65.234375 15.839844 62.015625 21.507812 60.441406 24.535156 " fill-opacity="1" fill-rule="nonzero"/><g clip-path="url(#e86a2468c3)"><path fill="#ffffff" d="M 137.863281 71.421875 L 119.808594 71.421875 L 119.808594 64.632812 L 119.570312 64.632812 C 115.667969 72.804688 107.851562 73.492188 103.007812 73.492188 C 99.105469 73.492188 89.898438 72.570312 84.257812 65.445312 C 79.195312 59.097656 78.515625 54.511719 78.515625 45.773438 L 78.515625 15.40625 L 97.609375 15.40625 L 97.609375 42.898438 C 97.609375 47.261719 97.609375 55.667969 107.851562 55.667969 C 113.363281 55.667969 118.773438 51.261719 118.773438 41.148438 L 118.773438 15.40625 L 137.863281 15.40625 L 137.863281 71.421875 " fill-opacity="1" fill-rule="nonzero"/></g><g clip-path="url(#a18d0c8727)"><path fill="#ece711" d="M 190.351562 49.296875 C 190.152344 36.125 179.3125 25.613281 166.140625 25.804688 C 152.960938 26.003906 142.449219 36.84375 142.648438 50.015625 C 142.847656 63.1875 153.6875 73.703125 166.851562 73.507812 C 180.03125 73.308594 190.546875 62.46875 190.351562 49.296875 " fill-opacity="1" fill-rule="nonzero"/></g><path fill="#ffffff" d="M 153.878906 40.835938 L 146.863281 40.835938 L 146.863281 46.863281 L 153.878906 46.863281 L 153.878906 62.671875 L 160.523438 62.671875 L 160.523438 46.890625 L 167.46875 46.890625 L 164.445312 41.335938 L 164.453125 41.335938 L 165.316406 43.363281 L 172.324219 61.722656 L 172.773438 62.773438 L 178.765625 62.773438 L 179.226562 61.722656 L 186.210938 43.363281 L 187.277344 40.917969 L 180.183594 40.917969 L 179.730469 41.960938 L 175.777344 52.628906 L 175.773438 52.945312 L 175.765625 52.628906 L 171.8125 41.960938 L 171.34375 40.917969 L 171.316406 40.917969 L 171.316406 40.816406 L 160.519531 40.816406 L 153.878906 40.835938 " fill-opacity="1" fill-rule="nonzero"/><path fill="#ffffff" d="M 192.289062 70.324219 L 192.289062 67.324219 L 191.183594 67.324219 L 191.183594 66.929688 L 193.855469 66.929688 L 193.855469 67.324219 L 192.742188 67.324219 L 192.742188 70.324219 L 192.289062 70.324219 " fill-opacity="1" fill-rule="nonzero"/><g clip-path="url(#cb8ac49c1a)"><path fill="#ffffff" d="M 194.308594 70.324219 L 194.308594 66.929688 L 194.992188 66.929688 L 195.792969 69.332031 L 195.949219 69.828125 L 196.132812 69.289062 L 196.949219 66.929688 L 197.550781 66.929688 L 197.550781 70.328125 L 197.117188 70.328125 L 197.117188 67.484375 L 196.132812 70.328125 L 195.730469 70.328125 L 194.742188 67.425781 L 194.742188 70.328125 L 194.308594 70.328125 " fill-opacity="1" fill-rule="nonzero"/></g></svg>