<svg xmlns="http://www.w3.org/2000/svg" xmlns:xlink="http://www.w3.org/1999/xlink" width="170" zoomAndPan="magnify" viewBox="0 0 127.5 36.000001" height="48" preserveAspectRatio="xMidYMid meet" version="1.0"><defs><clipPath id="f93e386a2a"><path d="M 112 3 L 125.535156 3 L 125.535156 33 L 112 33 Z M 112 3 " clip-rule="nonzero"/></clipPath><clipPath id="d4f91047f2"><path d="M 1.480469 0 L 37 0 L 37 34.964844 L 1.480469 34.964844 Z M 1.480469 0 " clip-rule="nonzero"/></clipPath></defs><path fill="#9f42c6" d="M 49.09375 14.242188 L 49.09375 10.058594 L 62.359375 10.058594 L 62.359375 14.242188 Z M 57.617188 32.621094 C 55.851562 32.621094 54.480469 32.167969 53.503906 31.265625 C 52.523438 30.359375 52.035156 29.070312 52.035156 27.382812 L 52.011719 16.117188 C 52.011719 15.679688 52.109375 15.285156 52.3125 14.925781 C 52.507812 14.570312 52.785156 14.34375 53.136719 14.246094 L 52.011719 10.949219 L 52.011719 10.359375 L 53.117188 3.695312 L 56.765625 3.695312 L 56.765625 26.195312 C 56.765625 26.980469 56.9375 27.527344 57.28125 27.84375 C 57.632812 28.15625 58.273438 28.308594 59.230469 28.308594 C 59.84375 28.308594 60.40625 28.308594 60.921875 28.300781 C 61.441406 28.296875 61.910156 28.289062 62.332031 28.273438 L 62.332031 32.367188 C 61.609375 32.503906 60.835938 32.578125 59.996094 32.601562 C 59.15625 32.621094 58.371094 32.628906 57.625 32.628906 Z M 64.238281 32.292969 L 64.238281 10.058594 L 68.351562 10.058594 L 68.886719 18.617188 L 68.453125 17.4375 C 68.550781 16.539062 68.730469 15.625 69 14.707031 C 69.273438 13.78125 69.652344 12.933594 70.140625 12.160156 C 70.628906 11.386719 71.265625 10.765625 72.050781 10.292969 C 72.839844 9.824219 73.789062 9.59375 74.90625 9.59375 C 75.191406 9.59375 75.46875 9.605469 75.730469 9.636719 C 75.992188 9.664062 76.242188 9.707031 76.472656 9.78125 L 76.472656 14.917969 C 76.015625 14.757812 75.527344 14.65625 75.007812 14.613281 C 74.488281 14.570312 74.007812 14.554688 73.5625 14.554688 C 73.03125 14.554688 72.460938 14.65625 71.847656 14.867188 C 71.234375 15.078125 70.671875 15.394531 70.15625 15.816406 C 69.636719 16.238281 69.265625 16.757812 69.03125 17.386719 L 69.03125 32.300781 L 64.222656 32.300781 Z M 83.71875 32.542969 C 82.390625 32.542969 81.195312 32.285156 80.144531 31.777344 C 79.09375 31.265625 78.269531 30.550781 77.679688 29.636719 C 77.085938 28.71875 76.796875 27.667969 76.796875 26.472656 C 76.796875 25.164062 77.035156 24.09375 77.511719 23.238281 C 77.984375 22.390625 78.671875 21.707031 79.566406 21.179688 C 80.464844 20.65625 81.539062 20.269531 82.785156 20.003906 C 83.640625 19.816406 84.550781 19.664062 85.515625 19.546875 C 86.480469 19.429688 87.382812 19.335938 88.214844 19.261719 C 89.046875 19.1875 89.6875 19.136719 90.140625 19.109375 L 90.140625 18.1875 C 90.140625 16.671875 89.84375 15.53125 89.238281 14.773438 C 88.632812 14.023438 87.609375 13.640625 86.171875 13.640625 C 85.246094 13.640625 84.472656 13.757812 83.851562 13.984375 C 83.222656 14.21875 82.757812 14.640625 82.4375 15.261719 C 82.113281 15.882812 81.945312 16.773438 81.917969 17.941406 L 77.539062 17.941406 C 77.386719 16.027344 77.664062 14.453125 78.363281 13.226562 C 79.066406 12 80.109375 11.089844 81.5 10.503906 C 82.894531 9.921875 84.542969 9.628906 86.441406 9.628906 C 87.558594 9.628906 88.617188 9.753906 89.625 10.007812 C 90.628906 10.261719 91.519531 10.6875 92.292969 11.292969 C 93.066406 11.898438 93.679688 12.722656 94.125 13.765625 C 94.570312 14.808594 94.796875 16.136719 94.796875 17.742188 L 94.796875 32.292969 L 90.089844 32.292969 L 90.148438 27.324219 C 89.894531 28.820312 89.238281 30.0625 88.1875 31.054688 C 87.136719 32.046875 85.648438 32.542969 83.734375 32.542969 Z M 85.027344 28.894531 C 85.734375 28.894531 86.457031 28.777344 87.1875 28.535156 C 87.917969 28.296875 88.558594 27.953125 89.113281 27.484375 C 89.660156 27.023438 90.003906 26.476562 90.140625 25.859375 L 90.140625 21.777344 C 89.601562 21.835938 88.960938 21.925781 88.214844 22.054688 C 87.472656 22.1875 86.835938 22.3125 86.3125 22.433594 C 84.792969 22.734375 83.691406 23.136719 83.011719 23.648438 C 82.332031 24.15625 81.992188 24.9375 81.992188 26.003906 C 81.992188 26.601562 82.136719 27.121094 82.421875 27.550781 C 82.707031 27.988281 83.078125 28.324219 83.546875 28.558594 C 84.003906 28.796875 84.5 28.90625 85.035156 28.894531 Z M 95.9375 32.292969 L 95.9375 10.050781 L 100.804688 10.050781 L 100.804688 32.292969 Z M 100.285156 26.742188 L 99.796875 22.5 L 102.503906 17.785156 L 108 10.042969 L 113.691406 10.042969 L 106.085938 20.429688 L 104.144531 21.894531 L 100.292969 26.726562 Z M 108.632812 32.292969 L 102.144531 21.035156 L 105.816406 18.21875 L 114.425781 32.285156 L 108.632812 32.285156 Z M 108.632812 32.292969 " fill-opacity="1" fill-rule="nonzero"/><g clip-path="url(#f93e386a2a)"><path fill="#9f42c6" d="M 112.121094 14.242188 L 112.121094 10.058594 L 125.386719 10.058594 L 125.386719 14.242188 Z M 120.636719 32.621094 C 118.871094 32.621094 117.5 32.167969 116.523438 31.265625 C 115.542969 30.359375 115.054688 29.070312 115.054688 27.382812 L 115.03125 16.117188 C 115.03125 15.679688 115.128906 15.285156 115.332031 14.925781 C 115.527344 14.570312 115.804688 14.34375 116.15625 14.246094 L 115.03125 10.949219 L 115.03125 10.359375 L 116.136719 3.695312 L 119.785156 3.695312 L 119.785156 26.195312 C 119.785156 26.980469 119.957031 27.527344 120.300781 27.84375 C 120.652344 28.15625 121.292969 28.308594 122.25 28.308594 C 122.863281 28.308594 123.425781 28.308594 123.941406 28.300781 C 124.460938 28.296875 124.929688 28.289062 125.351562 28.273438 L 125.351562 32.367188 C 124.628906 32.503906 123.855469 32.578125 123.015625 32.601562 C 122.175781 32.621094 121.390625 32.628906 120.644531 32.628906 Z M 120.636719 32.621094 " fill-opacity="1" fill-rule="nonzero"/></g><g clip-path="url(#d4f91047f2)"><path fill="#9f42c6" d="M 36.507812 8.214844 L 36.507812 26.800781 C 36.507812 31.339844 32.820312 35.023438 28.28125 35.023438 L 9.695312 35.023438 C 5.15625 35.023438 1.480469 31.339844 1.480469 26.800781 L 1.480469 8.214844 C 1.480469 3.675781 5.15625 -0.00390625 9.695312 -0.00390625 L 28.28125 -0.00390625 C 28.988281 -0.00390625 29.679688 0.0820312 30.363281 0.261719 C 31.046875 0.4375 31.695312 0.699219 32.308594 1.046875 C 32.925781 1.390625 33.484375 1.808594 33.992188 2.296875 C 34.5 2.789062 34.9375 3.335938 35.300781 3.9375 C 35.433594 4.148438 35.550781 4.367188 35.667969 4.585938 C 35.910156 5.082031 36.105469 5.601562 36.242188 6.148438 C 36.316406 6.417969 36.375 6.703125 36.410156 6.988281 C 36.476562 7.382812 36.507812 7.796875 36.507812 8.214844 Z M 36.507812 8.214844 " fill-opacity="1" fill-rule="nonzero"/></g><path fill="#ffffff" d="M 11.417969 13.109375 L 17.199219 18.890625 L 18.269531 17.816406 L 12.492188 12.035156 Z M 10.90625 13.621094 L 9.84375 14.6875 L 20.351562 25.195312 L 21.414062 24.121094 L 18.261719 20.976562 L 35.300781 3.9375 C 35.039062 3.5 34.734375 3.089844 34.390625 2.710938 L 17.199219 19.902344 Z M 21.917969 23.617188 L 22.992188 22.550781 L 21.414062 20.976562 L 36.242188 6.148438 C 36.105469 5.601562 35.910156 5.082031 35.667969 4.585938 L 19.277344 20.976562 Z M 36.410156 6.988281 L 22.421875 20.976562 L 23.496094 22.042969 L 36.507812 9.03125 L 36.507812 8.214844 C 36.507812 7.796875 36.476562 7.382812 36.410156 6.988281 Z M 19.839844 16.246094 L 14.058594 10.46875 L 12.988281 11.539062 L 18.765625 17.320312 Z M 31.632812 25.625 C 31.632812 28.121094 29.601562 30.148438 27.109375 30.148438 L 10.878906 30.148438 C 8.382812 30.148438 6.355469 28.121094 6.355469 25.625 L 6.355469 9.394531 C 6.355469 6.898438 8.382812 4.863281 10.878906 4.863281 L 26.042969 4.863281 L 26.042969 3.351562 L 10.878906 3.351562 C 7.550781 3.351562 4.835938 6.058594 4.835938 9.394531 L 4.835938 25.625 C 4.835938 28.953125 7.542969 31.667969 10.878906 31.667969 L 27.109375 31.667969 C 30.433594 31.667969 33.148438 28.960938 33.148438 25.625 L 33.148438 23.0625 L 31.640625 23.0625 L 31.640625 25.625 Z M 31.632812 25.625 " fill-opacity="1" fill-rule="nonzero"/></svg>