<?xml version="1.0" encoding="UTF-8" standalone="no"?>
<!-- Created with Inkscape (http://www.inkscape.org/) -->

<svg
   xmlns:dc="http://purl.org/dc/elements/1.1/"
   xmlns:cc="http://creativecommons.org/ns#"
   xmlns:rdf="http://www.w3.org/1999/02/22-rdf-syntax-ns#"
   xmlns:svg="http://www.w3.org/2000/svg"
   xmlns="http://www.w3.org/2000/svg"
   xmlns:sodipodi="http://sodipodi.sourceforge.net/DTD/sodipodi-0.dtd"
   xmlns:inkscape="http://www.inkscape.org/namespaces/inkscape"
   width="1000"
   height="358.16699"
   id="svg2"
   version="1.1"
   inkscape:version="0.91 r13725"
   sodipodi:docname="Showtime 1997 (Print).svg">
  <metadata
     id="metadata15">
    <rdf:RDF>
      <cc:Work
         rdf:about="">
        <dc:format>image/svg+xml</dc:format>
        <dc:type
           rdf:resource="http://purl.org/dc/dcmitype/StillImage" />
        <dc:title></dc:title>
      </cc:Work>
    </rdf:RDF>
  </metadata>
  <defs
     id="defs13" />
  <sodipodi:namedview
     pagecolor="#ffffff"
     bordercolor="#666666"
     borderopacity="1"
     objecttolerance="10"
     gridtolerance="10"
     guidetolerance="10"
     inkscape:pageopacity="0"
     inkscape:pageshadow="2"
     inkscape:window-width="1366"
     inkscape:window-height="705"
     id="namedview11"
     showgrid="false"
     inkscape:zoom="0.64135035"
     inkscape:cx="517.66394"
     inkscape:cy="274.07165"
     inkscape:window-x="-8"
     inkscape:window-y="-8"
     inkscape:window-maximized="1"
     inkscape:current-layer="layer1" />
  <g
     inkscape:label="Layer 1"
     inkscape:groupmode="layer"
     id="layer1"
     transform="translate(451.57121,-301.85271)">
    <path
       id="path3680"
       d="m -416.16774,564.18962 c 11.43854,0 19.56364,-10.05554 19.56364,-24.70665 0,-30.31066 -26.55064,-36.21721 -54.95969,-61.83145 -0.40337,51.91998 15.68837,86.5381 35.39605,86.5381"
       style="fill:#000000;fill-rule:evenodd;stroke:none"
       inkscape:connector-curvature="0" />
    <path
       id="path3682"
       d="m -215.07147,601.66017 -40.97125,0 0,-101.95274 -44.25588,0 0,101.95274 -41.05769,0 0,-235.23898 40.98566,0 0,94.72082 44.32791,0 0,-94.72082 40.97125,0 0,235.23898 z M -198.0001,483.414 c 0,-71.75732 26.52183,-117.03604 58.2299,-121.79009 -31.69367,-38.96879 -84.62209,-59.77135 -132.72441,-59.77135 -52.92841,0 -100.49772,22.9635 -133.27184,59.45442 31.27588,6.22348 41.89326,32.44278 41.89326,72.99627 l -38.23409,0 c 0,-23.92872 -4.98454,-36.31806 -19.14584,-36.31806 -6.39636,0 -11.36651,3.22699 -14.26215,8.71575 -0.41779,0.95081 -0.83556,1.844 -1.23893,2.79481 -1.10928,3.06852 -1.69993,6.59804 -1.69993,10.55975 0,49.61498 81.48151,47.15153 81.48151,123.38918 0,29.79204 -22.83384,57.58162 -48.53452,57.58162 33.78257,36.9087 79.89684,58.99342 133.01253,58.99342 51.64626,0 98.1639,-21.88303 130.8516,-56.8469 -30.15221,-7.56326 -56.35709,-50.92595 -56.35709,-119.75882"
       style="fill:#000000;fill-rule:evenodd;stroke:none"
       inkscape:connector-curvature="0" />
    <path
       id="path3684"
       d="m -157.27375,479.59636 c 0,-39.58826 11.51056,-79.19093 32.54363,-79.19093 25.023577,0 31.319093,61.18317 31.319093,80.54511 0,42.41188 -13.340153,80.74681 -31.319093,80.74681 -21.5805,0 -32.54363,-40.3662 -32.54363,-82.10099"
       style="fill:#000000;fill-rule:evenodd;stroke:none"
       inkscape:connector-curvature="0" />
    <path
       id="path3686"
       d="m 252.03545,369.67699 -172.744848,0 -16.408673,134.32349 -0.619467,0 -18.339103,-134.32349 -37.5858023,0 -19.9237897,134.32349 -0.662675,0 -14.780772,-134.32349 -37.91715,0 30.526758,228.81381 36.64939602,0 20.57206998,-144.94087 0.633873,0 19.923787,144.94087 37.931548,0 25.254088,-193.47538 35.48249,0 0,193.47538 41.74919,0 0,-193.47538 38.2773,0 0,193.47538 41.778,0 0,-228.81381 -9.79622,0"
       style="fill:#000000;fill-rule:nonzero;stroke:none"
       inkscape:connector-curvature="0" />
    <path
       id="path3688"
       d="m 282.34612,369.67699 55.57915,0 18.64164,117.29535 0.63386,0 19.60686,-117.29535 54.31141,0 0,228.81381 -37.25447,0 0,-167.7603 -0.67709,0 -28.25057,167.7603 -23.15077,0 -27.96245,-167.7603 -0.61948,0 0,167.7603 -30.85809,0 0,-228.81381"
       style="fill:#000000;fill-rule:nonzero;stroke:none"
       inkscape:connector-curvature="0" />
    <path
       id="path3690"
       d="m 451.64788,369.67699 94.47592,0 0,35.33843 -52.69791,0 0,58.4604 38.91116,0 0,37.28326 -38.91116,0 0,62.36448 55.0029,0 0,35.36724 -96.78091,0 0,-228.81381"
       style="fill:#000000;fill-rule:nonzero;stroke:none"
       inkscape:connector-curvature="0" />
  </g>
</svg>
